<?xml version="1.0" encoding="UTF-8" standalone="no"?>
<!-- Created with Inkscape (http://www.inkscape.org/) -->

<svg
   version="1.1"
   id="svg1"
   width="666.66669"
   height="666.66669"
   viewBox="0 0 666.66669 666.66669"
   sodipodi:docname="6670984.eps"
   xmlns:inkscape="http://www.inkscape.org/namespaces/inkscape"
   xmlns:sodipodi="http://sodipodi.sourceforge.net/DTD/sodipodi-0.dtd"
   xmlns="http://www.w3.org/2000/svg"
   xmlns:svg="http://www.w3.org/2000/svg">
  <defs
     id="defs1">
    <clipPath
       clipPathUnits="userSpaceOnUse"
       id="clipPath27">
      <path
         d="m 1546.33,2612.27 c 0.28,1.39 0.39,2.79 0.57,4.2 -9.14,33.02 -56.18,32.47 -82.62,46.37 -5.34,2.81 -9.89,6.31 -13.84,10.28 -0.52,0.52 -1.05,1.04 -1.54,1.59 -8.3,9.04 -13.36,20.54 -15.34,33.55 -8.04,53.17 19.28,101.11 42.74,147.82 -0.73,1.29 -1.63,2.5 -2.77,3.6 -5.95,5.72 -15.17,5.56 -23.41,5.66 -30.79,0.36 -59.61,10.11 -84.64,28.06 -11.9,8.53 -22.62,18.59 -32.85,29.07 -5.85,6 -16.59,26.89 -25.53,27.63 -0.85,0.07 -1.5,-0.37 -2.2,-0.68 -10.51,-42.34 -11.37,-81.93 -36.74,-119.86 -9.6,-14.35 -20.94,-27.11 -34.41,-36.48 -7.06,-6.81 -15.66,-11.79 -27.49,-13.8 -2.99,-0.51 -6.05,-0.75 -9.15,-0.83 -1.25,-0.18 -2.42,-0.52 -3.7,-0.64 -1.5,-0.15 -2.7,0.22 -3.77,0.77 -19.07,0.83 -38.76,5.36 -53.42,-5.89 -6.92,-5.31 -11.22,-13.32 -14.59,-21.38 -24.86,-59.45 -7.39,-136.88 24.02,-190.36 23.94,-40.75 65.98,-78.45 111.7,-91.25 43.53,-12.18 88.96,-1.9 130.37,13.25 18.16,6.64 35.42,13.23 52,20.88 49.88,23.04 92.92,48.69 105.99,105.55 0.21,0.96 0.43,1.92 0.62,2.89 z"
         transform="translate(0,2.5e-5)"
         id="path27" />
    </clipPath>
  </defs>
  <sodipodi:namedview
     id="namedview1"
     pagecolor="#ffffff"
     bordercolor="#000000"
     borderopacity="0.25"
     inkscape:showpageshadow="2"
     inkscape:pageopacity="0.0"
     inkscape:pagecheckerboard="0"
     inkscape:deskcolor="#d1d1d1">
    <inkscape:page
       x="0"
       y="0"
       inkscape:label="1"
       id="page1"
       width="666.66669"
       height="666.66669"
       margin="0"
       bleed="0" />
  </sodipodi:namedview>
  <g
     id="g1"
     inkscape:groupmode="layer"
     inkscape:label="1">
    <g
       id="group-R5">
      <path
         id="path2"
         d="M 5000,0 V 5000 H 0 V 0 h 5000"
         style="fill:#ffffff;fill-opacity:1;fill-rule:nonzero;stroke:none"
         transform="matrix(0.13333333,0,0,-0.13333333,0,666.66667)" />
      <path
         id="path3"
         d="m 3076.06,1483.96 c -356.31,415 -938.37,620.67 -1474.63,521.05 -150.74,-28.01 -299.18,-79.28 -424.85,-167.52 -125.67,-88.24 -227.396,-215.76 -267.639,-364.45 -54.492,-201.33 15.258,-431.25 172.249,-567.751 111.84,-97.23 257.21,-145.48 400.82,-180.937 283.43,-70 576.8,-99.231 868.39,-86.532 171.97,7.5 346.46,30.391 502.8,102.77 144.36,66.808 279.64,189.14 352.28,333.11 74.64,147.91 -33.93,299.04 -129.42,410.26"
         style="fill:#eee3f3;fill-opacity:1;fill-rule:nonzero;stroke:none"
         transform="matrix(0.13333333,0,0,-0.13333333,0,666.66667)" />
      <path
         id="path4"
         d="m 3722.01,1713.55 c 65.6,104.74 144.79,203.53 247.39,271.95 102.61,68.41 231.33,103.8 351.22,75.62 119.9,-28.17 225.6,-127.73 242.05,-250.4 12.16,-90.78 -22.87,-180.86 -62.19,-263.48 -92.39,-194.1 -218.25,-380.26 -400.47,-493.13 -144.97,-89.79 -452.33,-182.29 -535.26,33.29 -76.21,198.09 55.45,463.56 157.26,626.15"
         style="fill:#eee3f3;fill-opacity:1;fill-rule:nonzero;stroke:none"
         transform="matrix(0.13333333,0,0,-0.13333333,0,666.66667)" />
      <path
         id="path5"
         d="m 1953.71,4603.54 c 230.67,11.1 463.58,4.77 693.08,-7.26 299.01,-15.67 599.94,-40.36 887.95,-122.65 323.5,-92.43 646.55,-265.99 843.28,-548.5 193.86,-278.42 312.85,-708.1 181.18,-1035 -89.59,-222.41 -286.72,-380.53 -482.6,-517.65 -195.88,-137.12 -404.42,-269.36 -537.91,-468.29 -25.31,-37.73 -48.06,-78.01 -81.3,-108.89 -33.24,-30.88 -80.33,-51.34 -123.98,-39.29 -33.47,9.22 -59.25,35.5 -82.31,61.58 -81.77,92.49 -151.89,196.72 -247.27,274.94 -179.36,147.07 -421.81,182.87 -651.28,213.23 -258.59,34.22 -517.17,68.49 -775.77,102.67 -204.13,26.97 -445.31,58.87 -634.28,142.13 -302.687,133.35 -512.594,444.68 -550.598,774.69 -45.609,396.07 143.008,884.99 516.743,1053.13 328.365,147.72 683.965,207.79 1045.065,225.16"
         style="fill:#eee3f3;fill-opacity:1;fill-rule:nonzero;stroke:none"
         transform="matrix(0.13333333,0,0,-0.13333333,0,666.66667)" />
      <path
         id="path6"
         d="m 2983.34,572.539 h -184.09 c -28.32,0 -51.28,23.082 -51.28,51.551 v 1241.07 c 0,28.47 -22.96,51.55 -51.29,51.55 h -729.96"
         style="fill:none;stroke:#5b55af;stroke-width:10;stroke-linecap:round;stroke-linejoin:round;stroke-miterlimit:10;stroke-dasharray:none;stroke-opacity:1"
         transform="matrix(0.13333333,0,0,-0.13333333,0,666.66667)" />
      <path
         id="path7"
         d="m 3038.43,738.672 h -184.09 c -28.32,0 -51.28,23.09 -51.28,51.547 V 1970.88 c 0,28.47 -22.96,51.55 -51.29,51.55 h -729.96"
         style="fill:none;stroke:#5b55af;stroke-width:10;stroke-linecap:round;stroke-linejoin:round;stroke-miterlimit:10;stroke-dasharray:none;stroke-opacity:1"
         transform="matrix(0.13333333,0,0,-0.13333333,0,666.66667)" />
      <path
         id="path8"
         d="m 2978.33,945.082 h -242.4 c -23.65,0 -42.82,19.277 -42.82,43.047 v 839.261 c 0,28.48 -22.97,51.57 -51.29,51.57 h -895.45"
         style="fill:none;stroke:#5b55af;stroke-width:10;stroke-linecap:round;stroke-linejoin:round;stroke-miterlimit:10;stroke-dasharray:none;stroke-opacity:1"
         transform="matrix(0.13333333,0,0,-0.13333333,0,666.66667)" />
      <path
         id="path9"
         d="M 2153.54,494.859 2332.5,1784.84 c 0.34,4.24 6.46,4.46 7.1,0.26 L 2534.7,494.859"
         style="fill:none;stroke:#040606;stroke-width:20;stroke-linecap:round;stroke-linejoin:round;stroke-miterlimit:10;stroke-dasharray:none;stroke-opacity:1"
         transform="matrix(0.13333333,0,0,-0.13333333,0,666.66667)" />
      <path
         id="path10"
         d="m 1192.85,504.629 202.69,841.611 308.44,-841.611"
         style="fill:none;stroke:#040606;stroke-width:20;stroke-linecap:round;stroke-linejoin:round;stroke-miterlimit:10;stroke-dasharray:none;stroke-opacity:1"
         transform="matrix(0.13333333,0,0,-0.13333333,0,666.66667)" />
      <path
         id="path11"
         d="m 743.285,1702.11 c -1.996,5.51 -4.137,10.92 -5.945,16.53 1.808,-5.61 3.805,-11.11 5.945,-16.53"
         style="fill:#5b55af;fill-opacity:1;fill-rule:nonzero;stroke:none"
         transform="matrix(0.13333333,0,0,-0.13333333,0,666.66667)" />
      <path
         id="path12"
         d="m 806.855,2154.67 c 23.504,-55.51 49.688,-109.79 75.485,-164.24 27.324,-57.7 55.148,-114.39 89.656,-168.2 71.094,-110.85 161.024,-208.96 260.784,-294.3 107.49,-91.97 231.07,-163.12 357.59,-225.02 1.04,-0.51 2.1,-0.98 3.14,-1.48 -26.25,-1.01 -52.53,-1.17 -78.74,-0.32 -52.42,1.71 -104.48,8.24 -156.1,17.62 45.9,-12.04 92.4,-21.06 141.08,-22.65 79.79,-2.59 160.28,3.26 238.65,18.69 77.75,15.32 156.07,40.14 222.4,84.78 30.03,20.22 57.53,44.97 78.57,74.66 11.31,15.97 20.49,33.14 27.59,51.18 -0.48,1.95 -0.78,3.94 -1.31,5.87 -38.32,140.56 -160.46,158.87 -269.84,221.3 -115.38,65.85 -214.11,161.3 -283.03,275.34 -63.93,105.77 -101.48,224.3 -152.58,336.28 -47.69,104.47 -109.58,158.36 -218.77,196.73 -81,28.47 -170.469,47.99 -251.789,20.48 -72.496,-24.54 -126.086,-82.96 -160.457,-152.85 5.754,-94.57 41.644,-188.81 77.671,-273.87"
         style="fill:#5b55af;fill-opacity:1;fill-rule:nonzero;stroke:none"
         transform="matrix(0.13333333,0,0,-0.13333333,0,666.66667)" />
      <path
         id="path13"
         d="m 1957.06,1914.16 c 0.57,55.01 -1,105.04 13.16,159.8 18.76,72.51 74.39,112.11 143.77,134.46 15.24,4.91 32.01,8.43 47.02,2.85 17.34,-6.46 28.42,-23.65 35.17,-40.97 21.82,-55.99 10.46,-118.84 -1.19,-177.83 -26.08,-132.08 -52.17,-264.16 -78.25,-396.24 -1.51,-7.61 -3.69,-16.18 -10.49,-19.84 -5.21,-2.82 -11.57,-1.8 -17.37,-0.63 -58.6,11.74 -115.8,30.51 -170,55.8 22.79,-10.63 38.05,270.28 38.18,282.6"
         style="fill:#cfb9e1;fill-opacity:1;fill-rule:nonzero;stroke:none"
         transform="matrix(0.13333333,0,0,-0.13333333,0,666.66667)" />
      <path
         id="path14"
         d="m 2099.31,1134.14 c 43.38,12.28 65.09,16.16 107.02,32.81 0.08,-191.848 26.88,-515.36 26.01,-570.579 -53.86,-6.121 -96,-26.109 -150.48,-26.691 -42.72,66.5 -60.14,254.742 -84.28,327.5 -5.58,16.808 -29.92,100.832 -57.11,196.43 53.3,12.01 106.25,25.65 158.84,40.53"
         style="fill:#cfb9e1;fill-opacity:1;fill-rule:nonzero;stroke:none"
         transform="matrix(0.13333333,0,0,-0.13333333,0,666.66667)" />
      <path
         id="path15"
         d="m 1999.67,1519.05 c 62.09,-14.38 125.8,-20.98 188.76,-30.31 33.16,-4.92 100.95,-23.88 132.24,-0.59 39.56,29.47 -25.24,46.67 -54.56,63.15 -50.48,28.37 -101.7,55.4 -152.59,83.01 -47.02,25.5 -107.39,79.85 -155.35,27.26 -30.84,-33.82 -34.37,-87.77 -37.88,-131.14 26.9,-0.95 52.95,-5.25 79.38,-11.38"
         style="fill:#040606;fill-opacity:1;fill-rule:nonzero;stroke:none"
         transform="matrix(0.13333333,0,0,-0.13333333,0,666.66667)" />
      <path
         id="path16"
         d="m 995.41,1744.03 c 28.71,91.13 158.65,112.01 238.87,105.55 166.92,-13.45 334.34,-17.57 500.33,-31.22 135.22,-11.11 282.4,-40.51 375.39,-148.9 75.99,-88.57 88.24,-210.46 109.76,-321.45 39.83,-205.53 50.98,-398.221 46.34,-606.471 -0.11,-4.891 -0.33,-10.129 -3.22,-14.07 -3.78,-5.149 -10.79,-6.399 -17.09,-7.25 -79.38,-10.668 -158.75,-21.348 -238.13,-32.039 -4.71,-0.629 -9.83,-1.18 -13.9,1.281 -4.45,2.711 -6.26,8.191 -7.71,13.211 -12.39,42.867 -176.11,698.768 -164.56,700.598 -137.07,-21.85 -245.46,-15.52 -383.79,-4.34 -97.77,7.89 -197.24,24.86 -282.53,73.53 -82.45,47.06 -192.967,166.15 -159.76,271.57"
         style="fill:#171717;fill-opacity:1;fill-rule:nonzero;stroke:none"
         transform="matrix(0.13333333,0,0,-0.13333333,0,666.66667)" />
      <path
         id="path17"
         d="m 955.609,1779.69 c 9.844,-14.85 9.086,-28.36 14.008,-36.45 25.117,0.35 50.283,-0.05 75.393,-0.43 65.81,-1.01 132.21,-1.96 196.94,11.71 56.3,11.9 112.29,29.14 166.54,48.28 83.74,29.57 162.27,50.42 156.11,153.53 -7.73,132.88 -23.72,300.3 13.59,429.9 15.06,52.31 23.24,91.3 45.78,140.82 6.2,13.6 12.42,27.63 13.31,42.56 0.63,10.68 -1.51,21.31 -4.05,31.7 -41.66,170.06 -183.1,172.12 -333.16,185.46 -23.24,2.07 -46.79,4.12 -69.78,0.16 -28.36,-4.87 -61.46,-13.28 -86.13,-28.16 -131.52,-79.31 -140.42,-212.57 -180.015,-350.23 -19.77,-68.76 -50.762,-133.86 -70.598,-202.6 -42.363,-146.79 -22.734,-298.39 62.062,-426.25"
         style="fill:#f14c62;fill-opacity:1;fill-rule:nonzero;stroke:none"
         transform="matrix(0.13333333,0,0,-0.13333333,0,666.66667)" />
      <path
         id="path18"
         d="m 2269.25,598.352 c 16.14,-9.071 40.3,-14.493 57.6,-19.743 44.71,-13.539 91.06,-21.168 135.17,-36.82 23.13,-8.207 45.22,-37.277 20.06,-57.879 -10.97,-8.988 -25.78,-11.25 -39.83,-12.879 -111.9,-13 -225.04,-6.672 -337.51,-0.34 -6.13,0.348 -12.83,0.938 -17.19,5.289 -2.47,2.461 -3.82,5.821 -5.06,9.09 -13.68,36.012 -23.09,76.27 -31.72,113.071 15.07,3.711 31.03,-2.61 46.18,-3.77 19.65,-1.492 41.15,-3.062 59.07,6.867 24.21,13.422 46.46,30.403 65.83,50.223 1.8,1.848 3.65,3.777 6.04,4.75 7.83,3.18 15.51,-5.332 18.16,-13.402 5.16,-15.719 5.43,-33.329 20.23,-42.688 0.96,-0.609 1.95,-1.199 2.97,-1.769"
         style="fill:#040606;fill-opacity:1;fill-rule:nonzero;stroke:none"
         transform="matrix(0.13333333,0,0,-0.13333333,0,666.66667)" />
      <path
         id="path19"
         d="m 1952.3,1950.63 c -1.33,18.68 0.1,36.01 17.46,42.57 23.94,9.07 32.04,-3.75 47.35,21.2 29.49,48.08 50.43,108.14 70.39,160.83 24.05,63.5 69.4,146.36 67.02,214.59 -0.13,3.55 -0.42,7.31 -2.49,10.17 -2.42,3.35 -6.64,4.72 -10.61,5.76 -35.36,9.31 -72.52,8.35 -108.99,5.99 -240.48,-15.54 -374.74,-277.66 -488.49,-457.16 -17.16,-27.07 -117.08,-157.35 -143.32,-155.27 91.9,-7.31 162.68,-54.11 247.68,-79.93 52.18,-15.84 109.57,-62.61 158.39,-69.33 15.78,-2.17 80.16,116.8 89.56,132.37 24.61,40.84 59.37,87.39 58.61,136.91 -0.15,9.73 -1.8,20.73 -2.56,31.3"
         style="fill:#171717;fill-opacity:1;fill-rule:nonzero;stroke:none"
         transform="matrix(0.13333333,0,0,-0.13333333,0,666.66667)" />
      <path
         id="path20"
         d="m 2238.97,1927.87 c -5.45,-40.65 -11.68,-79.8 -21.8,-119.51 -0.88,-3.46 -1.84,-7.06 -4.24,-9.71 -3.81,-4.18 -10.14,-4.79 -15.79,-4.47 -11.92,0.66 -23.46,4.17 -35.19,6.43 -72.99,14.05 -194.4,-35.31 -250.58,33.1 -11.29,13.75 -14.88,32.16 -17.25,49.83 -17.16,127.61 23.4,252.28 21.67,380.49 -0.92,68.48 24.38,109.8 59,165.68 33.2,53.59 79.93,71.8 139.83,51.37 100.93,-34.41 158.66,-141.91 153.92,-244.08 -4.77,-103.08 -15.8,-206.48 -29.57,-309.13"
         style="fill:#171717;fill-opacity:1;fill-rule:nonzero;stroke:none"
         transform="matrix(0.13333333,0,0,-0.13333333,0,666.66667)" />
      <path
         id="path21"
         d="m 1299.57,2919.07 c -0.98,-12.36 24.76,-40.61 32.63,-49.52 12.49,-14.13 27.02,-25.05 44.56,-32.01 45.71,-18.12 93.62,-19.79 129.44,18.09 17.01,17.98 28.57,40.44 38.25,63.27 14.76,34.77 35.34,130.65 26,167.27 -8.48,33.23 -43.93,4.26 -76.2,15.42 -28.08,9.7 -49.46,18.4 -79.49,13.15 -26.7,-4.67 -52.45,-18.01 -69.22,-39.79 -4.52,-5.87 -8.62,-11.82 -12.37,-17.77 -8.87,-18.96 -17.06,-38.28 -22.96,-58.4 -4.93,-16.78 -6.6,-33.8 -9.26,-50.8 -0.19,-9.66 -0.62,-19.31 -1.38,-28.91"
         style="fill:#cfb9e1;fill-opacity:1;fill-rule:nonzero;stroke:none"
         transform="matrix(0.13333333,0,0,-0.13333333,0,666.66667)" />
      <path
         id="path22"
         d="m 1280.55,2698.1 c 26.56,-18.72 59.39,-31.09 91.69,-33.71 6.21,-0.51 85.09,8.35 73.8,23.34 -29.61,39.28 -13.44,74.26 5.13,116.95 2.84,6.55 27.7,46.86 25.13,51.4 -0.73,1.29 -1.63,2.5 -2.77,3.6 -5.95,5.72 -15.17,5.56 -23.41,5.66 -30.79,0.36 -59.61,10.11 -84.64,28.06 -11.9,8.53 -22.62,18.59 -32.85,29.07 -5.85,6 -16.59,26.89 -25.53,27.63 -0.85,0.07 -1.5,-0.37 -2.2,-0.68 -10.51,-42.34 -15.65,-79.37 -36.74,-119.86 -16.33,-31.35 -56.65,-46.87 -68.08,-48.97 18.06,-32.21 50.09,-61.1 80.47,-82.49"
         style="fill:#cfb9e1;fill-opacity:1;fill-rule:nonzero;stroke:none"
         transform="matrix(0.13333333,0,0,-0.13333333,0,666.66667)" />
      <path
         id="path23"
         d="m 1369.11,2982.7 c 0.8,6.51 1.6,14.46 7.56,17.13 6.06,2.73 12.6,-2.21 19.09,-3.66 20.73,-4.67 39.86,17.96 51.72,32.3 2.41,2.92 4.78,5.61 7.17,8.09 13.56,14.06 27.51,20.88 50.58,18.98 22.77,-1.88 45.57,-9.78 67.99,-5.38 24.87,4.88 45.6,25.75 51.42,50.53 9.43,40.13 -23.33,93.56 -68.51,86.02 -12.19,-2.03 -25.38,-8.22 -36.09,-2.04 -6.02,3.47 -9.44,10.03 -13.58,15.63 -15.9,21.56 -47.08,30.11 -71.67,19.66 -6.47,-2.75 -12.49,-6.65 -19.21,-8.74 -12.87,-3.99 -26.68,-0.93 -40.13,-0.21 -15.9,0.86 -32.53,-1.86 -45.62,-10.96 -13.1,-9.1 -21.89,-25.46 -19.04,-41.21 0.83,-4.63 2.61,-9.22 2.02,-13.88 -2.09,-16.42 -28.08,-17.07 -35.85,-31.66 -7.44,-14 6.15,-31.22 2.31,-46.62 -2.28,-9.16 -10.51,-16.27 -11.46,-25.67 -1.17,-11.64 9.47,-19.8 14.06,-29.5 5.06,-10.71 9.81,-24.76 10.85,-36.51 2.14,-24.23 -12.45,-50.29 23.2,-47.26 29.33,2.5 49.59,25.97 53.19,54.96"
         style="fill:#171717;fill-opacity:1;fill-rule:nonzero;stroke:none"
         transform="matrix(0.13333333,0,0,-0.13333333,0,666.66667)" />
      <path
         id="path24"
         d="m 1819.59,2357.36 c 14.07,-16.95 25.59,-34.43 66.07,-31.74 51.41,3.41 101.43,29.66 130.8,72.73 8.16,11.96 14.87,25.29 16.81,39.67 11.68,86.55 -85.23,142.63 -147.08,177.65 -70.89,40.14 -147.57,68.35 -224.85,93.21 -68.55,22.06 -140.17,60.36 -213.99,54.44 -1.92,-0.16 -3.91,-0.51 -5.84,-1.03 0.79,-9.59 1.28,-19.22 1.37,-28.84 33.73,-53.34 54.67,-116.58 68.3,-178.07 8.81,-39.75 28.46,-85.62 24.45,-126.62 81.64,-11.28 162.79,-26.05 243.17,-44.29 20.93,-4.74 31.42,-15.81 40.79,-27.11"
         style="fill:#f14c62;fill-opacity:1;fill-rule:nonzero;stroke:none"
         transform="matrix(0.13333333,0,0,-0.13333333,0,666.66667)" />
      <path
         id="path25"
         d="m 1942.65,2540.57 c -31.28,-3.54 -57.48,-27.09 -72.66,-54.8 -15.19,-27.71 -21.19,-59.41 -26.98,-90.52 -16.54,-88.85 -21.93,-191.91 -51.56,-277.1 -18.42,-52.92 -90.06,-125.92 -54.62,-186.3 10.39,-17.71 32.34,-27.72 52.43,-23.92 35.56,6.73 52.15,46.8 67.27,79.84 19.5,42.62 48.44,75.41 74.27,112.83 32.31,46.79 55.7,104.2 79.1,155.9 30,66.27 56.57,141.83 32.08,210.35 -15,41.96 -55.07,78.6 -99.33,73.72"
         style="fill:#cfb9e1;fill-opacity:1;fill-rule:nonzero;stroke:none"
         transform="matrix(0.13333333,0,0,-0.13333333,0,666.66667)" />
      <path
         id="path26"
         d="m 1380.88,2842.4 c 1.18,-0.65 2.59,-1.23 4.08,-1.78 25.95,-10.72 54.51,-17.3 81.85,-13.29 6.85,-2.94 4.58,-8.57 1.13,-18.74 -4.83,-14.25 -9.19,-28.66 -13.05,-43.21 -25.23,25.92 -50.47,51.84 -75.71,77.76 0.57,-0.25 1.14,-0.5 1.7,-0.74"
         style="fill:#111629;fill-opacity:1;fill-rule:nonzero;stroke:none"
         transform="matrix(0.13333333,0,0,-0.13333333,0,666.66667)"
         clip-path="url(#clipPath27)" />
      <path
         id="path28"
         d="m 985.543,2661.79 c -51.688,-59.39 -72.887,-139.47 -90.453,-214.47 -22.707,-96.94 -45.41,-193.88 -68.121,-290.83 -5.328,-22.75 -10.684,-45.7 -11.344,-69.07 -1.055,-37.5 9.648,-85.22 18.402,-121.34 11.239,-46.35 38.832,-43.5 79.914,-39.4 64.961,6.49 153.339,26.25 197.199,79.5 20.85,25.31 27.54,59.15 33.55,91.46 8.26,44.42 16.52,88.83 24.78,133.26 33.75,181.49 67.48,368.7 29.3,549.31 -90.98,-13.6 -160.09,-57.37 -213.227,-118.42"
         style="fill:#f14c62;fill-opacity:1;fill-rule:nonzero;stroke:none"
         transform="matrix(0.13333333,0,0,-0.13333333,0,666.66667)" />
      <path
         id="path29"
         d="m 1200.58,2481.6 c -75.1,-19.66 -68.37,-116.27 -75.17,-175.85 -10.05,-88.02 -26.75,-175.26 -49.93,-260.73"
         style="fill:none;stroke:#171717;stroke-width:10;stroke-linecap:round;stroke-linejoin:round;stroke-miterlimit:10;stroke-dasharray:none;stroke-opacity:1"
         transform="matrix(0.13333333,0,0,-0.13333333,0,666.66667)" />
      <path
         id="path30"
         d="m 1998.27,2269.13 c -28.73,-124.53 -94.51,-313.66 -95.74,-441.49"
         style="fill:none;stroke:#111629;stroke-width:5;stroke-linecap:round;stroke-linejoin:round;stroke-miterlimit:10;stroke-dasharray:none;stroke-opacity:1"
         transform="matrix(0.13333333,0,0,-0.13333333,0,666.66667)" />
      <path
         id="path31"
         d="m 1461.94,2910.24 c 4.49,-11.72 14.37,-20.29 25.16,-21.83 10.79,-1.53 22.1,4.03 28.8,14.16"
         style="fill:#ffffff;fill-opacity:1;fill-rule:nonzero;stroke:none"
         transform="matrix(0.13333333,0,0,-0.13333333,0,666.66667)" />
      <path
         id="path32"
         d="m 766.477,1854.69 c 207.964,47.46 384.223,82.14 571.393,-6.38 121.89,-57.66 204.14,-165.01 227.22,-279.27 23.08,-114.25 -14.03,-194.29 -114.19,-244.64"
         style="fill:none;stroke:#534aa8;stroke-width:40;stroke-linecap:round;stroke-linejoin:round;stroke-miterlimit:10;stroke-dasharray:none;stroke-opacity:1"
         transform="matrix(0.13333333,0,0,-0.13333333,0,666.66667)" />
      <path
         id="path33"
         d="m 1857.42,1388.03 c -5.69,43.33 -6.95,97.01 -12.64,140.33"
         style="fill:none;stroke:#111629;stroke-width:5;stroke-linecap:round;stroke-linejoin:round;stroke-miterlimit:10;stroke-dasharray:none;stroke-opacity:1"
         transform="matrix(0.13333333,0,0,-0.13333333,0,666.66667)" />
      <path
         id="path34"
         d="m 1905.47,1785.73 c -133.88,20.47 -220.03,2.54 -392.39,2.54"
         style="fill:none;stroke:#111629;stroke-width:5;stroke-linecap:round;stroke-linejoin:round;stroke-miterlimit:10;stroke-dasharray:none;stroke-opacity:1"
         transform="matrix(0.13333333,0,0,-0.13333333,0,666.66667)" />
      <path
         id="path35"
         d="m 1328.72,2987.34 c 0,-22.02 17.75,-39.87 39.66,-39.87 21.91,0 39.67,17.85 39.67,39.87 0,22.02 -17.76,39.87 -39.67,39.87 -21.91,0 -39.66,-17.85 -39.66,-39.87"
         style="fill:#cfb9e1;fill-opacity:1;fill-rule:nonzero;stroke:none"
         transform="matrix(0.13333333,0,0,-0.13333333,0,666.66667)" />
      <path
         id="path36"
         d="m 1602.81,1297.56 c -1.05,0.5 -11.4,4.84 -12.44,5.35 -126.52,61.9 -250.1,133.05 -357.59,225.02 -99.76,85.34 -189.69,183.45 -260.784,294.3 -34.508,53.81 -62.332,110.5 -89.656,168.2 -25.797,54.45 -51.981,108.73 -75.485,164.24 -36.027,85.06 -71.917,179.3 -77.671,273.87 -19.207,-39.08 -32.485,-81.68 -39.532,-124.09 -30.515,-183.54 -9.648,-408.36 47.688,-585.81 1.808,-5.61 3.949,-11.02 5.945,-16.53 38.231,-105.6 115.336,-199.9 259.655,-282.16 255.99,-145.89 458.98,-124.04 511.4,-125.75 26.2,-0.86 62.21,2.34 88.47,3.36"
         style="fill:#534aa8;fill-opacity:1;fill-rule:nonzero;stroke:none"
         transform="matrix(0.13333333,0,0,-0.13333333,0,666.66667)" />
      <path
         id="path37"
         d="m 1093.39,2125.11 c 40.28,-8.85 79.79,-21.79 119.33,-33.81 62.77,-19.09 126.36,-30.1 190.13,-47.16 18.12,-4.85 36.51,-9.58 55.26,-9.76 32.23,-0.3 63.36,12.81 95.59,13.52 43.1,0.95 85.2,-23.23 108.62,-59.21 39.44,-60.59 -25.93,-44.36 -67.07,-43.76 -32.08,0.47 -64.17,0.94 -96.25,1.41 -126.11,1.85 -245.38,-4.57 -371.9,-15.27 -68.73,-5.81 -188.561,-22 -249.702,18.99 -29.707,19.91 -78.675,116.87 -51.406,145.86 5.113,5.43 12.172,8.48 19.082,11.25 61.867,24.75 128.852,33.78 195.306,26.75 17.86,-1.89 35.5,-4.96 53.01,-8.81"
         style="fill:#cfb9e1;fill-opacity:1;fill-rule:nonzero;stroke:none"
         transform="matrix(0.13333333,0,0,-0.13333333,0,666.66667)" />
      <path
         id="path38"
         d="m 2020.36,2022.48 c -0.76,0 -1.53,0 -2.29,0"
         style="fill:#d9776c;fill-opacity:1;fill-rule:nonzero;stroke:none"
         transform="matrix(0.13333333,0,0,-0.13333333,0,666.66667)" />
      <path
         id="path39"
         d="m 718.176,2141.13 c 2.121,-25.86 6.32,-51.73 10.418,-76.79 5.23,-32.02 10.492,-64.07 18.336,-95.53 6.871,-27.58 16.09,-55.35 33.984,-77.36 29.399,-36.15 82.891,-50.17 126.699,-35.63 34.5,11.45 29.742,23.8 15.039,52.55 -30.484,59.6 -62.172,121.97 -88.359,183.98 -26.539,62.85 -50.973,122.34 -72.727,186.98 -4.589,13.63 -9.179,27.27 -13.148,41.11 -5.914,20.61 -10.438,41.63 -13.531,62.85 2.75,-18.88 -2.938,-42.84 -4.793,-61.83 -2.11,-21.6 -4.668,-43.15 -7.684,-64.64 -5.367,-38.35 -7.422,-76.82 -4.234,-115.69"
         style="fill:#534aa8;fill-opacity:1;fill-rule:nonzero;stroke:none"
         transform="matrix(0.13333333,0,0,-0.13333333,0,666.66667)" />
      <path
         id="path40"
         d="m 526.781,494.859 187.61,1289.981 c 0.351,4.24 6.769,4.46 7.441,0.26 L 926.352,494.859"
         style="fill:none;stroke:#040606;stroke-width:20;stroke-linecap:round;stroke-linejoin:round;stroke-miterlimit:10;stroke-dasharray:none;stroke-opacity:1"
         transform="matrix(0.13333333,0,0,-0.13333333,0,666.66667)" />
      <path
         id="path41"
         d="M 2457.63,1825.53 H 599.156 v -57.27 H 2457.63 v 57.27"
         style="fill:#9384ca;fill-opacity:1;fill-rule:nonzero;stroke:none"
         transform="matrix(0.13333333,0,0,-0.13333333,0,666.66667)" />
      <path
         id="path42"
         d="m 1387.02,2993.09 c -2.36,14.37 -21.94,22.4 -33.63,13.79"
         style="fill:none;stroke:#171717;stroke-width:5;stroke-linecap:round;stroke-linejoin:round;stroke-miterlimit:10;stroke-dasharray:none;stroke-opacity:1"
         transform="matrix(0.13333333,0,0,-0.13333333,0,666.66667)" />
      <path
         id="path43"
         d="m 2004.3,1822.96 h -836.49 c -8.42,0 -15.25,6.83 -15.25,15.24 v 9.12 c 0,8.42 6.83,15.25 15.25,15.25 h 836.49 c 8.41,0 15.24,-6.83 15.24,-15.25 v -9.12 c 0,-8.41 -6.83,-15.24 -15.24,-15.24"
         style="fill:#040606;fill-opacity:1;fill-rule:nonzero;stroke:none"
         transform="matrix(0.13333333,0,0,-0.13333333,0,666.66667)" />
      <path
         id="path44"
         d="m 2022.25,1822.96 h -740.87 l 64.46,425.47 c 2.24,14.76 14.78,25.79 29.36,25.79 h 682.15 c 17.61,0 30.86,-15.87 28.16,-33.71 l -63.26,-417.55"
         style="fill:#040606;fill-opacity:1;fill-rule:nonzero;stroke:none"
         transform="matrix(0.13333333,0,0,-0.13333333,0,666.66667)" />
      <path
         id="path45"
         d="m 1706.29,2063.06 32.14,-26.86"
         style="fill:none;stroke:#f14c62;stroke-width:10;stroke-linecap:round;stroke-linejoin:round;stroke-miterlimit:10;stroke-dasharray:none;stroke-opacity:1"
         transform="matrix(0.13333333,0,0,-0.13333333,0,666.66667)" />
      <path
         id="path46"
         d="m 1664.06,2063.06 32.13,-26.86"
         style="fill:none;stroke:#f14c62;stroke-width:10;stroke-linecap:round;stroke-linejoin:round;stroke-miterlimit:10;stroke-dasharray:none;stroke-opacity:1"
         transform="matrix(0.13333333,0,0,-0.13333333,0,666.66667)" />
      <path
         id="path47"
         d="m 1806.2,2426.17 c -2,-27.83 12.79,-63.86 25.31,-81.47"
         style="fill:none;stroke:#171717;stroke-width:10;stroke-linecap:round;stroke-linejoin:round;stroke-miterlimit:10;stroke-dasharray:none;stroke-opacity:1"
         transform="matrix(0.13333333,0,0,-0.13333333,0,666.66667)" />
      <path
         id="path48"
         d="m 3528.18,3125.97 c 57.43,7.15 109.76,-33.86 116.87,-91.6 7.11,-57.73 -33.68,-110.34 -91.12,-117.48 -57.44,-7.15 -109.76,33.86 -116.87,91.6 -7.11,57.74 33.69,110.34 91.12,117.48 z m -30.68,45.87 c -9.79,-2.86 -19.13,-6.62 -27.95,-11.21 0.62,-0.66 1.28,-1.26 1.84,-1.99 8.55,-11.39 6.31,-27.6 -5.03,-36.21 -11.33,-8.6 -27.45,-6.34 -36.02,5.05 -0.6,0.81 -1.02,1.68 -1.52,2.53 -6.99,-7.32 -13.26,-15.3 -18.73,-23.82 0.92,-0.28 1.84,-0.47 2.75,-0.86 13.08,-5.56 19.19,-20.73 13.65,-33.88 -5.53,-13.14 -20.62,-19.29 -33.7,-13.73 -1.02,0.44 -1.92,1.03 -2.86,1.58 -2.43,-9.8 -3.93,-19.93 -4.41,-30.27 1.03,0.26 2.04,0.58 3.13,0.72 14.09,1.75 26.94,-8.31 28.67,-22.48 1.75,-14.17 -8.26,-27.08 -22.35,-28.83 -1.24,-0.15 -2.45,-0.11 -3.66,-0.09 2.85,-10.06 6.66,-19.66 11.31,-28.72 0.85,0.86 1.69,1.74 2.67,2.49 11.34,8.61 27.46,6.34 36.02,-5.05 8.56,-11.39 6.31,-27.6 -5.02,-36.21 -1.09,-0.81 -2.24,-1.44 -3.39,-2.07 7.44,-7.21 15.56,-13.68 24.26,-19.28 0.32,1.26 0.64,2.52 1.16,3.76 5.54,13.15 20.63,19.29 33.7,13.73 13.08,-5.57 19.19,-20.74 13.66,-33.88 -0.56,-1.33 -1.28,-2.54 -2.03,-3.72 9.96,-2.48 20.26,-3.99 30.76,-4.44 -0.37,1.3 -0.73,2.61 -0.89,3.99 -1.75,14.17 8.26,27.08 22.35,28.83 14.1,1.75 26.94,-8.31 28.68,-22.48 0.18,-1.44 0.16,-2.86 0.1,-4.27 10.12,2.94 19.75,6.87 28.84,11.66 -0.97,0.94 -1.93,1.89 -2.76,3 -8.56,11.39 -6.31,27.6 5.02,36.2 11.34,8.61 27.46,6.34 36.02,-5.05 0.84,-1.12 1.49,-2.31 2.13,-3.51 7.13,7.52 13.5,15.74 19.02,24.52 -1.22,0.32 -2.45,0.63 -3.64,1.14 -13.09,5.57 -19.2,20.73 -13.67,33.88 5.54,13.15 20.63,19.29 33.72,13.73 1.19,-0.51 2.25,-1.18 3.33,-1.84 2.37,9.91 3.79,20.14 4.2,30.59 -1.12,-0.29 -2.22,-0.63 -3.39,-0.77 -14.11,-1.76 -26.94,8.31 -28.69,22.48 -1.74,14.17 8.28,27.07 22.37,28.82 1.14,0.15 2.26,0.09 3.39,0.08 -2.91,9.94 -6.76,19.43 -11.44,28.37 -0.74,-0.73 -1.43,-1.49 -2.28,-2.13 -11.33,-8.61 -27.46,-6.34 -36.02,5.05 -8.55,11.39 -6.31,27.6 5.03,36.21 0.83,0.63 1.73,1.08 2.62,1.59 -7.33,6.99 -15.31,13.25 -23.83,18.69 -0.26,-0.9 -0.45,-1.81 -0.83,-2.69 -5.53,-13.14 -20.63,-19.29 -33.7,-13.72 -13.08,5.56 -19.19,20.73 -13.65,33.88 0.38,0.9 0.9,1.68 1.36,2.52 -9.65,2.34 -19.61,3.77 -29.78,4.21 0.19,-0.86 0.47,-1.68 0.58,-2.57 1.74,-14.17 -8.27,-27.07 -22.36,-28.83 -14.09,-1.75 -26.93,8.31 -28.68,22.48 -0.11,0.95 -0.05,1.88 -0.06,2.82"
         style="fill:#f14c62;fill-opacity:1;fill-rule:nonzero;stroke:none"
         transform="matrix(0.13333333,0,0,-0.13333333,0,666.66667)" />
      <path
         id="path49"
         d="m 3461.39,3029.55 c 5.14,41.81 45.11,72.2 89.1,67.73 43.98,-4.46 75.57,-42.11 70.43,-83.92 -5.15,-41.81 -45.12,-72.2 -89.09,-67.74 -43.99,4.47 -75.59,42.12 -70.44,83.93 z m 65.69,-134.39 c 69.28,-7.8 131.94,42.51 139.7,112.15 7.76,69.64 -42.28,132.64 -111.56,140.44 -69.26,7.8 -131.94,-42.51 -139.69,-112.14 -7.77,-69.64 42.28,-132.65 111.55,-140.45"
         style="fill:#f14c62;fill-opacity:1;fill-rule:nonzero;stroke:none"
         transform="matrix(0.13333333,0,0,-0.13333333,0,666.66667)" />
      <path
         id="path50"
         d="m 2679.73,2896.35 c 46.82,5.89 89.6,-28.85 95.54,-77.58 5.94,-48.73 -27.2,-93 -74.03,-98.89 -46.83,-5.88 -89.6,28.85 -95.54,77.58 -5.94,48.73 27.2,93.01 74.03,98.89 z m -25.14,38.78 c -7.98,-2.39 -15.59,-5.54 -22.77,-9.39 0.5,-0.56 1.05,-1.06 1.5,-1.69 7.01,-9.63 5.22,-23.3 -4,-30.53 -9.23,-7.23 -22.39,-5.28 -29.4,4.35 -0.49,0.68 -0.84,1.42 -1.25,2.14 -5.68,-6.16 -10.78,-12.87 -15.21,-20.05 0.75,-0.24 1.51,-0.4 2.24,-0.73 10.69,-4.73 15.71,-17.54 11.22,-28.62 -4.48,-11.08 -16.77,-16.23 -27.45,-11.5 -0.84,0.37 -1.57,0.88 -2.34,1.34 -1.96,-8.27 -3.16,-16.8 -3.53,-25.53 0.85,0.22 1.67,0.49 2.56,0.59 11.5,1.45 21.98,-7.07 23.45,-19.03 1.45,-11.96 -6.68,-22.82 -18.16,-24.27 -1.02,-0.13 -2.01,-0.08 -2.99,-0.06 2.35,-8.49 5.48,-16.61 9.29,-24.26 0.7,0.72 1.37,1.46 2.18,2.1 9.22,7.23 22.38,5.27 29.39,-4.36 7.01,-9.63 5.21,-23.3 -4.01,-30.53 -0.88,-0.69 -1.82,-1.22 -2.76,-1.74 6.08,-6.1 12.72,-11.59 19.84,-16.34 0.26,1.07 0.51,2.14 0.93,3.18 4.48,11.07 16.78,16.22 27.46,11.49 10.68,-4.72 15.7,-17.53 11.22,-28.61 -0.46,-1.13 -1.04,-2.14 -1.64,-3.13 8.13,-2.12 16.52,-3.43 25.1,-3.83 -0.31,1.1 -0.61,2.21 -0.75,3.37 -1.46,11.96 6.68,22.82 18.17,24.27 11.49,1.44 21.98,-7.08 23.44,-19.04 0.15,-1.22 0.14,-2.42 0.1,-3.6 8.23,2.45 16.09,5.75 23.48,9.76 -0.79,0.79 -1.57,1.6 -2.25,2.54 -7.02,9.63 -5.22,23.3 4.01,30.53 9.22,7.23 22.37,5.28 29.38,-4.36 0.69,-0.94 1.23,-1.95 1.74,-2.96 5.8,6.33 10.98,13.25 15.46,20.65 -0.99,0.27 -2,0.53 -2.98,0.96 -10.68,4.73 -15.7,17.54 -11.22,28.62 4.49,11.08 16.78,16.23 27.45,11.5 0.98,-0.44 1.86,-1 2.73,-1.56 1.91,8.36 3.06,16.99 3.35,25.8 -0.91,-0.25 -1.81,-0.52 -2.77,-0.64 -11.48,-1.45 -21.98,7.07 -23.44,19.03 -1.46,11.96 6.68,22.82 18.17,24.27 0.94,0.12 1.85,0.07 2.76,0.06 -2.4,8.39 -5.56,16.4 -9.39,23.96 -0.61,-0.61 -1.17,-1.25 -1.86,-1.79 -9.22,-7.23 -22.38,-5.28 -29.39,4.35 -7.01,9.63 -5.21,23.3 4,30.53 0.69,0.54 1.42,0.91 2.14,1.35 -5.99,5.9 -12.52,11.21 -19.48,15.82 -0.21,-0.76 -0.36,-1.52 -0.66,-2.26 -4.49,-11.08 -16.78,-16.23 -27.46,-11.5 -10.68,4.73 -15.71,17.54 -11.23,28.62 0.32,0.76 0.75,1.42 1.12,2.12 -7.87,2.01 -16.01,3.23 -24.31,3.63 0.17,-0.72 0.39,-1.41 0.49,-2.17 1.45,-11.95 -6.68,-22.82 -18.16,-24.26 -11.5,-1.45 -22,7.07 -23.45,19.03 -0.1,0.8 -0.05,1.58 -0.06,2.38"
         style="fill:#f14c62;fill-opacity:1;fill-rule:nonzero;stroke:none"
         transform="matrix(0.13333333,0,0,-0.13333333,0,666.66667)" />
      <path
         id="path51"
         d="m 2626.65,2815.04 c 4.01,34.64 35.96,59.72 71.2,55.91 35.26,-3.8 60.66,-35.08 56.63,-69.71 -4.02,-34.64 -35.96,-59.73 -71.21,-55.92 -35.24,3.81 -60.64,35.09 -56.62,69.72 z m 54.1,-100.55 c 49.69,-5.94 94.51,31.25 99.92,82.88 5.41,51.64 -30.6,98.47 -80.29,104.41 -49.69,5.94 -94.51,-31.23 -99.93,-82.87 -5.41,-51.63 30.61,-98.48 80.3,-104.42"
         style="fill:#f14c62;fill-opacity:1;fill-rule:nonzero;stroke:none"
         transform="matrix(0.13333333,0,0,-0.13333333,0,666.66667)" />
      <path
         id="path52"
         d="m 3080.06,3097.79 c 94.01,11.7 179.65,-55.43 191.29,-149.94 11.63,-94.5 -55.15,-180.59 -149.15,-192.29 -94.02,-11.7 -179.65,55.43 -191.29,149.93 -11.64,94.51 55.13,180.6 149.15,192.3 z m -55.58,93.54 c -17.2,-5.03 -33.66,-11.65 -49.18,-19.72 1.09,-1.16 2.26,-2.21 3.23,-3.5 15.06,-20.05 11.1,-48.57 -8.84,-63.72 -19.94,-15.13 -48.31,-11.15 -63.37,8.9 -1.07,1.41 -1.82,2.95 -2.69,4.44 -12.3,-12.88 -23.34,-26.91 -32.95,-41.91 1.61,-0.49 3.25,-0.83 4.84,-1.51 23.01,-9.79 33.77,-36.48 24.02,-59.62 -9.74,-23.13 -36.29,-33.94 -59.31,-24.15 -1.79,0.76 -3.38,1.81 -5.03,2.78 -4.28,-17.26 -6.92,-35.07 -7.77,-53.28 1.82,0.47 3.61,1.02 5.52,1.26 24.79,3.09 47.39,-14.62 50.46,-39.55 3.07,-24.93 -14.54,-47.64 -39.35,-50.73 -2.17,-0.27 -4.29,-0.19 -6.42,-0.14 5.01,-17.71 11.71,-34.61 19.89,-50.55 1.49,1.52 2.96,3.06 4.72,4.39 19.94,15.14 48.31,11.16 63.37,-8.89 15.05,-20.05 11.1,-48.57 -8.85,-63.71 -1.9,-1.44 -3.93,-2.54 -5.96,-3.64 13.1,-12.69 27.38,-24.09 42.7,-33.94 0.55,2.22 1.12,4.44 2.04,6.62 9.73,23.13 36.29,33.95 59.29,24.15 23.02,-9.79 33.77,-36.48 24.04,-59.61 -0.99,-2.34 -2.26,-4.46 -3.57,-6.54 17.52,-4.37 35.63,-7.03 54.13,-7.81 -0.65,2.28 -1.29,4.58 -1.59,7.02 -3.07,24.93 14.55,47.64 39.35,50.73 24.8,3.08 47.39,-14.63 50.47,-39.55 0.31,-2.55 0.27,-5.05 0.16,-7.52 17.79,5.17 34.77,12.09 50.75,20.51 -1.7,1.65 -3.38,3.32 -4.86,5.28 -15.06,20.04 -11.09,48.57 8.85,63.7 19.94,15.14 48.31,11.16 63.37,-8.89 1.48,-1.97 2.62,-4.07 3.74,-6.17 12.55,13.23 23.77,27.7 33.48,43.15 -2.15,0.56 -4.31,1.1 -6.42,2 -23.01,9.79 -33.77,36.48 -24.03,59.62 9.74,23.13 36.29,33.94 59.31,24.15 2.1,-0.89 3.98,-2.07 5.87,-3.23 4.18,17.43 6.69,35.44 7.38,53.83 -1.96,-0.52 -3.89,-1.11 -5.96,-1.37 -24.8,-3.08 -47.4,14.63 -50.46,39.56 -3.08,24.93 14.54,47.64 39.34,50.73 2.02,0.25 4,0.15 5.98,0.13 -5.14,17.49 -11.9,34.18 -20.14,49.92 -1.31,-1.27 -2.53,-2.62 -4.01,-3.75 -19.94,-15.14 -48.32,-11.16 -63.38,8.89 -15.06,20.05 -11.1,48.57 8.85,63.71 1.46,1.11 3.04,1.9 4.6,2.81 -12.89,12.29 -26.94,23.3 -41.93,32.87 -0.46,-1.57 -0.8,-3.17 -1.45,-4.72 -9.74,-23.13 -36.29,-33.94 -59.31,-24.15 -23.01,9.79 -33.76,36.48 -24.02,59.61 0.66,1.59 1.59,2.97 2.41,4.43 -16.98,4.14 -34.51,6.65 -52.41,7.42 0.34,-1.5 0.83,-2.95 1.02,-4.52 3.07,-24.93 -14.55,-47.64 -39.34,-50.72 -24.81,-3.09 -47.39,14.62 -50.46,39.55 -0.22,1.67 -0.1,3.3 -0.12,4.95"
         style="fill:#f14c62;fill-opacity:1;fill-rule:nonzero;stroke:none"
         transform="matrix(0.13333333,0,0,-0.13333333,0,666.66667)" />
      <path
         id="path53"
         d="m 2961.41,2942.47 c 8.64,77.54 78.42,133.56 155.56,124.87 77.14,-8.68 132.85,-78.83 124.22,-156.37 -8.64,-77.55 -78.43,-133.58 -155.57,-124.89 -77.13,8.69 -132.86,78.85 -124.21,156.39 z m 116.56,-225.09 c 114.82,-12.93 218.69,70.47 231.55,185.9 12.86,115.42 -70.08,219.84 -184.89,232.76 -114.83,12.93 -218.7,-70.44 -231.56,-185.87 -12.86,-115.42 70.08,-219.86 184.9,-232.79 z"
         style="fill:none;stroke:#202022;stroke-width:10;stroke-linecap:round;stroke-linejoin:round;stroke-miterlimit:10;stroke-dasharray:none;stroke-opacity:1"
         transform="matrix(0.13333333,0,0,-0.13333333,0,666.66667)" />
      <path
         id="path54"
         d="m 2133.25,4331.54 c 21.51,25.03 59.12,27.8 84.02,6.18 24.9,-21.61 27.65,-59.43 6.15,-84.46"
         style="fill:none;stroke:#040606;stroke-width:10;stroke-linecap:round;stroke-linejoin:round;stroke-miterlimit:10;stroke-dasharray:none;stroke-opacity:1"
         transform="matrix(0.13333333,0,0,-0.13333333,0,666.66667)" />
      <path
         id="path55"
         d="m 2359.04,4086.13 c 0,-31.58 -25.46,-57.17 -56.87,-57.17 -31.41,0 -56.88,25.59 -56.88,57.17 0,31.58 25.47,57.17 56.88,57.17 31.41,0 56.87,-25.59 56.87,-57.17 z"
         style="fill:none;stroke:#040606;stroke-width:10;stroke-linecap:round;stroke-linejoin:round;stroke-miterlimit:10;stroke-dasharray:none;stroke-opacity:1"
         transform="matrix(0.13333333,0,0,-0.13333333,0,666.66667)" />
      <path
         id="path56"
         d="m 3773.15,3886.29 c -1.21,82.19 69.47,145.68 146.92,141.96 26.92,-1.29 51.62,-10.26 72.35,-24.51 32.26,37.08 80.4,59.56 133.15,57.03 72.37,-3.47 142.42,-52.68 148.27,-120.15 70.86,-20.34 124.27,-86.38 120.59,-163.57 -2.26,-47.69 -24.67,-89.62 -58.56,-117.88 8.56,-24.48 7.74,-53.25 -7.88,-81.92 -8.37,-15.37 -21.58,-27.82 -37.36,-35.28 -28.86,-13.66 -56.12,-12.98 -79.11,-3.96 l -1.83,-133.23 c -0.11,-8 -10.36,-11.14 -14.89,-4.57 l -69.33,100.6 c -64.61,-26.58 -122.58,13.29 -126.9,72.29 -17.17,-8.59 -36.62,-13.12 -57.14,-12.14 -59.25,2.85 -105.94,49.73 -110.49,107.66 -32.39,-19.38 -74.65,-23.49 -116.6,-2.37 -23.26,11.7 -41.53,31.98 -50.73,56.43 -32.46,86.32 30.51,164.82 109.54,163.61"
         style="fill:#9384ca;fill-opacity:1;fill-rule:nonzero;stroke:none"
         transform="matrix(0.13333333,0,0,-0.13333333,0,666.66667)" />
      <path
         id="path57"
         d="m 4250.39,3723.21 c 38.2,-1.83 70.09,-26 83.76,-59.35"
         style="fill:none;stroke:#040606;stroke-width:10;stroke-linecap:round;stroke-linejoin:round;stroke-miterlimit:10;stroke-dasharray:none;stroke-opacity:1"
         transform="matrix(0.13333333,0,0,-0.13333333,0,666.66667)" />
      <path
         id="path58"
         d="m 3831.84,3678.38 c 3.06,64.62 57.66,114.5 121.95,111.41"
         style="fill:none;stroke:#040606;stroke-width:10;stroke-linecap:round;stroke-linejoin:round;stroke-miterlimit:10;stroke-dasharray:none;stroke-opacity:1"
         transform="matrix(0.13333333,0,0,-0.13333333,0,666.66667)" />
      <path
         id="path59"
         d="m 3763.21,3886.16 c 24.57,1.64 47.48,-4.28 66.8,-15.58"
         style="fill:none;stroke:#040606;stroke-width:10;stroke-linecap:round;stroke-linejoin:round;stroke-miterlimit:10;stroke-dasharray:none;stroke-opacity:1"
         transform="matrix(0.13333333,0,0,-0.13333333,0,666.66667)" />
      <path
         id="path60"
         d="m 3895.56,3975.97 c 51.63,-2.48 91.48,-46.57 89.01,-98.47"
         style="fill:none;stroke:#040606;stroke-width:10;stroke-linecap:round;stroke-linejoin:round;stroke-miterlimit:10;stroke-dasharray:none;stroke-opacity:1"
         transform="matrix(0.13333333,0,0,-0.13333333,0,666.66667)" />
      <path
         id="path61"
         d="m 3977.52,3618.27 c -45.54,-4.34 -85.96,29.25 -90.28,75.03"
         style="fill:none;stroke:#040606;stroke-width:10;stroke-linecap:round;stroke-linejoin:round;stroke-miterlimit:10;stroke-dasharray:none;stroke-opacity:1"
         transform="matrix(0.13333333,0,0,-0.13333333,0,666.66667)" />
      <path
         id="path62"
         d="m 3716.82,3740.21 c -13.49,39.1 7.11,81.79 46,95.35"
         style="fill:none;stroke:#040606;stroke-width:10;stroke-linecap:round;stroke-linejoin:round;stroke-miterlimit:10;stroke-dasharray:none;stroke-opacity:1"
         transform="matrix(0.13333333,0,0,-0.13333333,0,666.66667)" />
      <path
         id="path63"
         d="m 4286.11,3630.38 c -9.64,-29.88 -41.54,-46.24 -71.26,-36.56"
         style="fill:none;stroke:#040606;stroke-width:10;stroke-linecap:round;stroke-linejoin:round;stroke-miterlimit:10;stroke-dasharray:none;stroke-opacity:1"
         transform="matrix(0.13333333,0,0,-0.13333333,0,666.66667)" />
      <path
         id="path64"
         d="m 4150.03,3917.62 c 34.34,23.76 77.56,32.43 121.65,23.42"
         style="fill:none;stroke:#040606;stroke-width:10;stroke-linecap:round;stroke-linejoin:round;stroke-miterlimit:10;stroke-dasharray:none;stroke-opacity:1"
         transform="matrix(0.13333333,0,0,-0.13333333,0,666.66667)" />
      <path
         id="path65"
         d="m 4298.16,3868.87 c 23.05,-17.16 38.18,-44.52 38.69,-75.58"
         style="fill:none;stroke:#040606;stroke-width:10;stroke-linecap:round;stroke-linejoin:round;stroke-miterlimit:10;stroke-dasharray:none;stroke-opacity:1"
         transform="matrix(0.13333333,0,0,-0.13333333,0,666.66667)" />
      <path
         id="path66"
         d="m 4048.11,3832.93 c 28.76,5.79 60.42,-7.99 75.89,-33.05 15.47,-25.06 13.71,-59.7 -4.22,-83.04"
         style="fill:none;stroke:#040606;stroke-width:10;stroke-linecap:round;stroke-linejoin:round;stroke-miterlimit:10;stroke-dasharray:none;stroke-opacity:1"
         transform="matrix(0.13333333,0,0,-0.13333333,0,666.66667)" />
      <path
         id="path67"
         d="m 4038.43,3690.59 c -10.03,-9.17 -15.15,-23.49 -13.21,-36.97 1.95,-13.49 10.89,-25.75 23.1,-31.68"
         style="fill:none;stroke:#040606;stroke-width:10;stroke-linecap:round;stroke-linejoin:round;stroke-miterlimit:10;stroke-dasharray:none;stroke-opacity:1"
         transform="matrix(0.13333333,0,0,-0.13333333,0,666.66667)" />
      <path
         id="path68"
         d="m 3305.09,4323.2 4.32,-422.06 -87.96,-0.47 -4.32,422.06 87.96,0.47"
         style="fill:#5b55af;fill-opacity:1;fill-rule:nonzero;stroke:none"
         transform="matrix(0.13333333,0,0,-0.13333333,0,666.66667)" />
      <path
         id="path69"
         d="m 3109.57,4253.43 3.61,-353.34 -87.96,-0.48 -3.62,353.35 87.97,0.47"
         style="fill:#f14c62;fill-opacity:1;fill-rule:nonzero;stroke:none"
         transform="matrix(0.13333333,0,0,-0.13333333,0,666.66667)" />
      <path
         id="path70"
         d="m 2825.91,4199.87 3.08,-301.32 87.96,0.48 -3.07,300.84 h -87.97"
         style="fill:#5b55af;fill-opacity:1;fill-rule:nonzero;stroke:none"
         transform="matrix(0.13333333,0,0,-0.13333333,0,666.66667)" />
      <path
         id="path71"
         d="m 2733.08,4060 1.65,-161.95 -87.96,-0.48 -1.66,161.95 87.97,0.48"
         style="fill:#f14c62;fill-opacity:1;fill-rule:nonzero;stroke:none"
         transform="matrix(0.13333333,0,0,-0.13333333,0,666.66667)" />
      <path
         id="path72"
         d="m 3382.79,3901 -772.88,-4.81"
         style="fill:none;stroke:#1f2952;stroke-width:10;stroke-linecap:round;stroke-linejoin:round;stroke-miterlimit:10;stroke-dasharray:none;stroke-opacity:1"
         transform="matrix(0.13333333,0,0,-0.13333333,0,666.66667)" />
      <path
         id="path73"
         d="M 3038.2,4227.66 V 4131.5"
         style="fill:none;stroke:#040606;stroke-width:10;stroke-linecap:round;stroke-linejoin:round;stroke-miterlimit:10;stroke-dasharray:none;stroke-opacity:1"
         transform="matrix(0.13333333,0,0,-0.13333333,0,666.66667)" />
      <path
         id="path74"
         d="M 3237.41,4078.52 V 3957.04"
         style="fill:none;stroke:#040606;stroke-width:10;stroke-linecap:round;stroke-linejoin:round;stroke-miterlimit:10;stroke-dasharray:none;stroke-opacity:1"
         transform="matrix(0.13333333,0,0,-0.13333333,0,666.66667)" />
      <path
         id="path75"
         d="m 2658.02,4015.24 v -40.19"
         style="fill:none;stroke:#040606;stroke-width:10;stroke-linecap:round;stroke-linejoin:round;stroke-miterlimit:10;stroke-dasharray:none;stroke-opacity:1"
         transform="matrix(0.13333333,0,0,-0.13333333,0,666.66667)" />
      <path
         id="path76"
         d="m 2843.97,4091.31 c 0,-5.74 0,-11.48 0,-17.22"
         style="fill:none;stroke:#040606;stroke-width:10;stroke-linecap:round;stroke-linejoin:round;stroke-miterlimit:10;stroke-dasharray:none;stroke-opacity:1"
         transform="matrix(0.13333333,0,0,-0.13333333,0,666.66667)" />
      <path
         id="path77"
         d="m 1587.76,2420.21 c 1.13,15.72 0.02,31.6 -3.29,47"
         style="fill:none;stroke:#171717;stroke-width:10;stroke-linecap:round;stroke-linejoin:round;stroke-miterlimit:10;stroke-dasharray:none;stroke-opacity:1"
         transform="matrix(0.13333333,0,0,-0.13333333,0,666.66667)" />
      <path
         id="path78"
         d="M 3742.69,3538.93 3543.42,3338.61 H 2751.85 L 2506.02,3087.3"
         style="fill:none;stroke:#5b55af;stroke-width:10;stroke-linecap:round;stroke-linejoin:round;stroke-miterlimit:10;stroke-dasharray:none;stroke-opacity:1"
         transform="matrix(0.13333333,0,0,-0.13333333,0,666.66667)" />
      <path
         id="path79"
         d="M 3748.98,3452.73 3571.45,3274.26 H 2871.67 L 2600.68,3001.85"
         style="fill:none;stroke:#5b55af;stroke-width:10;stroke-linecap:round;stroke-linejoin:round;stroke-miterlimit:10;stroke-dasharray:none;stroke-opacity:1"
         transform="matrix(0.13333333,0,0,-0.13333333,0,666.66667)" />
      <path
         id="path80"
         d="M 3559.11,3827.87 H 2343.31"
         style="fill:none;stroke:#5b55af;stroke-width:10;stroke-linecap:round;stroke-linejoin:round;stroke-miterlimit:10;stroke-dasharray:none;stroke-opacity:1"
         transform="matrix(0.13333333,0,0,-0.13333333,0,666.66667)" />
      <path
         id="path81"
         d="m 3522.88,3638.48 h -975.4 l -205.51,-206.59"
         style="fill:none;stroke:#5b55af;stroke-width:10;stroke-linecap:round;stroke-linejoin:round;stroke-miterlimit:10;stroke-dasharray:none;stroke-opacity:1"
         transform="matrix(0.13333333,0,0,-0.13333333,0,666.66667)" />
      <path
         id="path82"
         d="m 3172.66,3519.5 -108.7,-109.26 h -495.14 l -138.89,-139.62"
         style="fill:none;stroke:#5b55af;stroke-width:10;stroke-linecap:round;stroke-linejoin:round;stroke-miterlimit:10;stroke-dasharray:none;stroke-opacity:1"
         transform="matrix(0.13333333,0,0,-0.13333333,0,666.66667)" />
      <path
         id="path83"
         d="M 2621.95,3524.36 H 3022.9"
         style="fill:none;stroke:#5b55af;stroke-width:10;stroke-linecap:round;stroke-linejoin:round;stroke-miterlimit:10;stroke-dasharray:none;stroke-opacity:1"
         transform="matrix(0.13333333,0,0,-0.13333333,0,666.66667)" />
      <path
         id="path84"
         d="M 3399.7,3738.03 H 2699.25"
         style="fill:none;stroke:#5b55af;stroke-width:10;stroke-linecap:round;stroke-linejoin:round;stroke-miterlimit:10;stroke-dasharray:none;stroke-opacity:1"
         transform="matrix(0.13333333,0,0,-0.13333333,0,666.66667)" />
      <path
         id="path85"
         d="m 3259.61,3475.8 h 256.02"
         style="fill:none;stroke:#5b55af;stroke-width:10;stroke-linecap:round;stroke-linejoin:round;stroke-miterlimit:10;stroke-dasharray:none;stroke-opacity:1"
         transform="matrix(0.13333333,0,0,-0.13333333,0,666.66667)" />
      <path
         id="path86"
         d="m 3592.93,3830.3 c 0,-18.78 -15.14,-34 -33.82,-34 -18.67,0 -33.81,15.22 -33.81,34 0,18.77 15.14,33.99 33.81,33.99 18.68,0 33.82,-15.22 33.82,-33.99"
         style="fill:#5b55af;fill-opacity:1;fill-rule:nonzero;stroke:none"
         transform="matrix(0.13333333,0,0,-0.13333333,0,666.66667)" />
      <path
         id="path87"
         d="m 2377.13,3830.3 c 0,-18.78 -15.14,-34 -33.82,-34 -18.67,0 -33.81,15.22 -33.81,34 0,18.77 15.14,33.99 33.81,33.99 18.68,0 33.82,-15.22 33.82,-33.99"
         style="fill:#5b55af;fill-opacity:1;fill-rule:nonzero;stroke:none"
         transform="matrix(0.13333333,0,0,-0.13333333,0,666.66667)" />
      <path
         id="path88"
         d="m 3539.79,3470.94 c 0,-18.77 -15.14,-33.99 -33.81,-33.99 -18.68,0 -33.82,15.22 -33.82,33.99 0,18.77 15.14,33.99 33.82,33.99 18.67,0 33.81,-15.22 33.81,-33.99"
         style="fill:#5b55af;fill-opacity:1;fill-rule:nonzero;stroke:none"
         transform="matrix(0.13333333,0,0,-0.13333333,0,666.66667)" />
      <path
         id="path89"
         d="m 3056.72,3524.36 c 0,-18.77 -15.14,-33.99 -33.82,-33.99 -18.67,0 -33.81,15.22 -33.81,33.99 0,18.77 15.14,33.99 33.81,33.99 18.68,0 33.82,-15.22 33.82,-33.99"
         style="fill:#5b55af;fill-opacity:1;fill-rule:nonzero;stroke:none"
         transform="matrix(0.13333333,0,0,-0.13333333,0,666.66667)" />
      <path
         id="path90"
         d="m 3191.98,3524.36 c 0,-18.77 -15.14,-33.99 -33.82,-33.99 -18.67,0 -33.81,15.22 -33.81,33.99 0,18.77 15.14,33.99 33.81,33.99 18.68,0 33.82,-15.22 33.82,-33.99"
         style="fill:#5b55af;fill-opacity:1;fill-rule:nonzero;stroke:none"
         transform="matrix(0.13333333,0,0,-0.13333333,0,666.66667)" />
      <path
         id="path91"
         d="m 2675.09,3529.21 c 0,-18.77 -15.14,-33.99 -33.81,-33.99 -18.68,0 -33.82,15.22 -33.82,33.99 0,18.78 15.14,34 33.82,34 18.67,0 33.81,-15.22 33.81,-34"
         style="fill:#5b55af;fill-opacity:1;fill-rule:nonzero;stroke:none"
         transform="matrix(0.13333333,0,0,-0.13333333,0,666.66667)" />
      <path
         id="path92"
         d="m 2549.49,3101.87 c 0,-18.77 -15.13,-33.99 -33.82,-33.99 -18.67,0 -33.81,15.22 -33.81,33.99 0,18.77 15.14,33.99 33.81,33.99 18.69,0 33.82,-15.22 33.82,-33.99"
         style="fill:#5b55af;fill-opacity:1;fill-rule:nonzero;stroke:none"
         transform="matrix(0.13333333,0,0,-0.13333333,0,666.66667)" />
      <path
         id="path93"
         d="m 2636.55,3002.95 c 0,-18.78 -15.14,-33.99 -33.82,-33.99 -18.67,0 -33.81,15.21 -33.81,33.99 0,18.77 15.14,33.99 33.81,33.99 18.68,0 33.82,-15.22 33.82,-33.99"
         style="fill:#5b55af;fill-opacity:1;fill-rule:nonzero;stroke:none"
         transform="matrix(0.13333333,0,0,-0.13333333,0,666.66667)" />
      <path
         id="path94"
         d="m 2477.03,3291.26 c 0,-18.77 -15.14,-33.99 -33.81,-33.99 -18.68,0 -33.82,15.22 -33.82,33.99 0,18.77 15.14,33.99 33.82,33.99 18.67,0 33.81,-15.22 33.81,-33.99"
         style="fill:#5b55af;fill-opacity:1;fill-rule:nonzero;stroke:none"
         transform="matrix(0.13333333,0,0,-0.13333333,0,666.66667)" />
      <path
         id="path95"
         d="m 3322.41,3470.94 c 0,-18.77 -15.14,-33.99 -33.82,-33.99 -18.67,0 -33.81,15.22 -33.81,33.99 0,18.77 15.14,33.99 33.81,33.99 18.68,0 33.82,-15.22 33.82,-33.99"
         style="fill:#5b55af;fill-opacity:1;fill-rule:nonzero;stroke:none"
         transform="matrix(0.13333333,0,0,-0.13333333,0,666.66667)" />
      <path
         id="path96"
         d="m 3556.7,3638.48 c 0,-18.78 -15.14,-33.99 -33.82,-33.99 -18.67,0 -33.81,15.21 -33.81,33.99 0,18.77 15.14,33.99 33.81,33.99 18.68,0 33.82,-15.22 33.82,-33.99"
         style="fill:#5b55af;fill-opacity:1;fill-rule:nonzero;stroke:none"
         transform="matrix(0.13333333,0,0,-0.13333333,0,666.66667)" />
      <path
         id="path97"
         d="m 3782.8,3452.73 c 0,-18.77 -15.13,-33.99 -33.82,-33.99 -18.67,0 -33.8,15.22 -33.8,33.99 0,18.77 15.13,33.99 33.8,33.99 18.69,0 33.82,-15.22 33.82,-33.99"
         style="fill:#5b55af;fill-opacity:1;fill-rule:nonzero;stroke:none"
         transform="matrix(0.13333333,0,0,-0.13333333,0,666.66667)" />
      <path
         id="path98"
         d="m 3774.08,3541.35 c 0,-18.77 -15.13,-33.99 -33.82,-33.99 -18.67,0 -33.81,15.22 -33.81,33.99 0,18.78 15.14,34 33.81,34 18.69,0 33.82,-15.22 33.82,-34"
         style="fill:#5b55af;fill-opacity:1;fill-rule:nonzero;stroke:none"
         transform="matrix(0.13333333,0,0,-0.13333333,0,666.66667)" />
      <path
         id="path99"
         d="m 3433.52,3738.03 c 0,-18.78 -15.14,-33.99 -33.82,-33.99 -18.67,0 -33.81,15.21 -33.81,33.99 0,18.77 15.14,33.99 33.81,33.99 18.68,0 33.82,-15.22 33.82,-33.99"
         style="fill:#5b55af;fill-opacity:1;fill-rule:nonzero;stroke:none"
         transform="matrix(0.13333333,0,0,-0.13333333,0,666.66667)" />
      <path
         id="path100"
         d="m 2733.06,3738.03 c 0,-18.78 -15.14,-33.99 -33.81,-33.99 -18.68,0 -33.82,15.21 -33.82,33.99 0,18.77 15.14,33.99 33.82,33.99 18.67,0 33.81,-15.22 33.81,-33.99"
         style="fill:#5b55af;fill-opacity:1;fill-rule:nonzero;stroke:none"
         transform="matrix(0.13333333,0,0,-0.13333333,0,666.66667)" />
      <path
         id="path101"
         d="m 2390.08,3441.8 c 0,-18.77 -15.14,-33.99 -33.82,-33.99 -18.67,0 -33.81,15.22 -33.81,33.99 0,18.78 15.14,34 33.81,34 18.68,0 33.82,-15.22 33.82,-34"
         style="fill:#5b55af;fill-opacity:1;fill-rule:nonzero;stroke:none"
         transform="matrix(0.13333333,0,0,-0.13333333,0,666.66667)" />
      <path
         id="path102"
         d="m 775.828,3817.7 v 0 c 0,-10.32 8.32,-18.69 18.59,-18.69 h 357.702 c 10.27,0 18.59,8.37 18.59,18.69 v 0 c 0,10.32 -8.32,18.69 -18.59,18.69 H 794.418 c -10.27,0 -18.59,-8.37 -18.59,-18.69"
         style="fill:#ad93d1;fill-opacity:1;fill-rule:nonzero;stroke:none"
         transform="matrix(0.13333333,0,0,-0.13333333,0,666.66667)" />
      <path
         id="path103"
         d="m 1345.83,3836.39 h -114.31 c -10.27,0 -18.59,-8.37 -18.59,-18.69 v 0 c 0,-10.32 8.32,-18.69 18.59,-18.69 h 114.31 c 10.27,0 18.59,8.37 18.59,18.69 v 0 c 0,10.32 -8.32,18.69 -18.59,18.69"
         style="fill:#ad93d1;fill-opacity:1;fill-rule:nonzero;stroke:none"
         transform="matrix(0.13333333,0,0,-0.13333333,0,666.66667)" />
      <path
         id="path104"
         d="M 1231.6,3744.39 H 906.176 c -10.27,0 -18.586,-8.36 -18.586,-18.68 v 0 c 0,-10.32 8.316,-18.69 18.586,-18.69 H 1231.6 c 10.26,0 18.58,8.37 18.58,18.69 v 0 c 0,10.32 -8.32,18.68 -18.58,18.68"
         style="fill:#ad93d1;fill-opacity:1;fill-rule:nonzero;stroke:none"
         transform="matrix(0.13333333,0,0,-0.13333333,0,666.66667)" />
      <path
         id="path105"
         d="m 1281.67,3725.71 v 0 c 0,-10.32 8.33,-18.69 18.59,-18.69 h 69.29 c 10.27,0 18.59,8.37 18.59,18.69 v 0 c 0,10.32 -8.32,18.68 -18.59,18.68 h -69.29 c -10.26,0 -18.59,-8.36 -18.59,-18.68"
         style="fill:#ad93d1;fill-opacity:1;fill-rule:nonzero;stroke:none"
         transform="matrix(0.13333333,0,0,-0.13333333,0,666.66667)" />
      <path
         id="path106"
         d="m 835.375,3744.39 h -40.957 c -10.27,0 -18.59,-8.36 -18.59,-18.68 v 0 c 0,-10.32 8.32,-18.69 18.59,-18.69 h 40.957 c 10.27,0 18.59,8.37 18.59,18.69 v 0 c 0,10.32 -8.32,18.68 -18.59,18.68"
         style="fill:#ad93d1;fill-opacity:1;fill-rule:nonzero;stroke:none"
         transform="matrix(0.13333333,0,0,-0.13333333,0,666.66667)" />
      <path
         id="path107"
         d="M 713.52,3744.39 H 549.57 c -10.269,0 -18.59,-8.36 -18.59,-18.68 v 0 c 0,-10.32 8.321,-18.69 18.59,-18.69 h 163.95 c 6.171,0 11.175,5.03 11.175,11.24 v 14.9 c 0,6.21 -5.004,11.23 -11.175,11.23"
         style="fill:#ad93d1;fill-opacity:1;fill-rule:nonzero;stroke:none"
         transform="matrix(0.13333333,0,0,-0.13333333,0,666.66667)" />
      <path
         id="path108"
         d="m 939.094,3639.89 v 0 c 0,-10.31 8.324,-18.68 18.586,-18.68 h 404.89 c 10.27,0 18.59,8.37 18.59,18.68 v 0 c 0,10.32 -8.32,18.69 -18.59,18.69 H 957.68 c -10.262,0 -18.586,-8.37 -18.586,-18.69"
         style="fill:#ad93d1;fill-opacity:1;fill-rule:nonzero;stroke:none"
         transform="matrix(0.13333333,0,0,-0.13333333,0,666.66667)" />
      <path
         id="path109"
         d="m 651.008,3639.89 v 0 c 0,-10.31 8.316,-18.68 18.582,-18.68 h 188.828 c 10.266,0 18.59,8.37 18.59,18.68 v 0 c 0,10.32 -8.324,18.69 -18.59,18.69 H 669.59 c -10.266,0 -18.582,-8.37 -18.582,-18.69"
         style="fill:#ad93d1;fill-opacity:1;fill-rule:nonzero;stroke:none"
         transform="matrix(0.13333333,0,0,-0.13333333,0,666.66667)" />
      <path
         id="path110"
         d="m 511.926,3547.9 v 0 c 0,-10.32 8.324,-18.69 18.586,-18.69 h 24.914 c 10.265,0 18.59,8.37 18.59,18.69 v 0 c 0,10.32 -8.325,18.69 -18.59,18.69 h -24.914 c -10.262,0 -18.586,-8.37 -18.586,-18.69"
         style="fill:#ad93d1;fill-opacity:1;fill-rule:nonzero;stroke:none"
         transform="matrix(0.13333333,0,0,-0.13333333,0,666.66667)" />
      <path
         id="path111"
         d="m 598.848,3547.9 v 0 c 0,-10.32 8.324,-18.69 18.59,-18.69 h 243.46 c 10.27,0 18.59,8.37 18.59,18.69 v 0 c 0,10.32 -8.32,18.69 -18.59,18.69 h -243.46 c -10.266,0 -18.59,-8.37 -18.59,-18.69"
         style="fill:#ad93d1;fill-opacity:1;fill-rule:nonzero;stroke:none"
         transform="matrix(0.13333333,0,0,-0.13333333,0,666.66667)" />
      <path
         id="path112"
         d="m 919.223,3547.9 v 0 c 0,-10.32 8.328,-18.69 18.59,-18.69 h 89.477 c 10.27,0 18.59,8.37 18.59,18.69 v 0 c 0,10.32 -8.32,18.69 -18.59,18.69 h -89.477 c -10.262,0 -18.59,-8.37 -18.59,-18.69"
         style="fill:#ad93d1;fill-opacity:1;fill-rule:nonzero;stroke:none"
         transform="matrix(0.13333333,0,0,-0.13333333,0,666.66667)" />
      <path
         id="path113"
         d="m 1100.52,3547.9 v 0 c 0,-10.32 8.32,-18.69 18.59,-18.69 h 91.97 c 10.26,0 18.58,8.37 18.58,18.69 v 0 c 0,10.32 -8.32,18.69 -18.58,18.69 h -91.97 c -10.27,0 -18.59,-8.37 -18.59,-18.69"
         style="fill:#ad93d1;fill-opacity:1;fill-rule:nonzero;stroke:none"
         transform="matrix(0.13333333,0,0,-0.13333333,0,666.66667)" />
      <path
         id="path114"
         d="m 1294.24,3547.9 v 0 c 0,-10.32 8.32,-18.69 18.59,-18.69 h 49.74 c 10.27,0 18.59,8.37 18.59,18.69 v 0 c 0,10.32 -8.32,18.69 -18.59,18.69 h -49.74 c -10.27,0 -18.59,-8.37 -18.59,-18.69"
         style="fill:#ad93d1;fill-opacity:1;fill-rule:nonzero;stroke:none"
         transform="matrix(0.13333333,0,0,-0.13333333,0,666.66667)" />
      <path
         id="path115"
         d="m 718.059,3455.91 v 0 c 0,-10.32 8.324,-18.69 18.586,-18.69 h 34.847 c 10.266,0 18.59,8.37 18.59,18.69 v 0 c 0,10.32 -8.324,18.68 -18.59,18.68 h -34.847 c -10.262,0 -18.586,-8.36 -18.586,-18.68"
         style="fill:#ad93d1;fill-opacity:1;fill-rule:nonzero;stroke:none"
         transform="matrix(0.13333333,0,0,-0.13333333,0,666.66667)" />
      <path
         id="path116"
         d="m 863.695,3455.91 v 0 c 0,-10.32 8.321,-18.69 18.586,-18.69 h 174.939 c 10.26,0 18.58,8.37 18.58,18.69 v 0 c 0,10.32 -8.32,18.68 -18.58,18.68 H 882.281 c -10.265,0 -18.586,-8.36 -18.586,-18.68"
         style="fill:#ad93d1;fill-opacity:1;fill-rule:nonzero;stroke:none"
         transform="matrix(0.13333333,0,0,-0.13333333,0,666.66667)" />
      <path
         id="path117"
         d="m 1113.49,3455.91 v 0 c 0,-10.32 8.32,-18.69 18.59,-18.69 h 136.67 c 10.27,0 18.59,8.37 18.59,18.69 v 0 c 0,10.32 -8.32,18.68 -18.59,18.68 h -136.67 c -10.27,0 -18.59,-8.36 -18.59,-18.68"
         style="fill:#ad93d1;fill-opacity:1;fill-rule:nonzero;stroke:none"
         transform="matrix(0.13333333,0,0,-0.13333333,0,666.66667)" />
      <path
         id="path118"
         d="m 943.809,4083.13 v 0 c 0,-10.32 8.324,-18.69 18.589,-18.69 h 404.892 c 10.26,0 18.59,8.37 18.59,18.69 v 0 c 0,10.32 -8.33,18.69 -18.59,18.69 H 962.398 c -10.265,0 -18.589,-8.37 -18.589,-18.69"
         style="fill:#ad93d1;fill-opacity:1;fill-rule:nonzero;stroke:none"
         transform="matrix(0.13333333,0,0,-0.13333333,0,666.66667)" />
      <path
         id="path119"
         d="m 1091.77,4181.3 h -49.49 c -10.27,0 -18.59,-8.37 -18.59,-18.69 v 0 c 0,-10.32 8.32,-18.68 18.59,-18.68 h 49.49 c 10.27,0 18.59,8.36 18.59,18.68 v 0 c 0,10.32 -8.32,18.69 -18.59,18.69"
         style="fill:#ad93d1;fill-opacity:1;fill-rule:nonzero;stroke:none"
         transform="matrix(0.13333333,0,0,-0.13333333,0,666.66667)" />
      <path
         id="path120"
         d="M 967.09,4181.3 H 799 c -10.266,0 -18.59,-8.37 -18.59,-18.69 v 0 c 0,-10.32 8.324,-18.68 18.59,-18.68 h 168.09 c 10.269,0 18.59,8.36 18.59,18.68 v 0 c 0,10.32 -8.321,18.69 -18.59,18.69"
         style="fill:#ad93d1;fill-opacity:1;fill-rule:nonzero;stroke:none"
         transform="matrix(0.13333333,0,0,-0.13333333,0,666.66667)" />
      <path
         id="path121"
         d="m 1139.25,4162.61 v 0 c 0,-10.32 8.32,-18.68 18.59,-18.68 h 209.45 c 10.26,0 18.59,8.36 18.59,18.68 v 0 c 0,10.32 -8.33,18.69 -18.59,18.69 h -209.45 c -10.27,0 -18.59,-8.37 -18.59,-18.69"
         style="fill:#ad93d1;fill-opacity:1;fill-rule:nonzero;stroke:none"
         transform="matrix(0.13333333,0,0,-0.13333333,0,666.66667)" />
      <path
         id="path122"
         d="m 923.941,3991.14 v 0 c 0,-10.32 8.321,-18.69 18.586,-18.69 h 89.483 c 10.27,0 18.59,8.37 18.59,18.69 v 0 c 0,10.32 -8.32,18.68 -18.59,18.68 h -89.483 c -10.265,0 -18.586,-8.36 -18.586,-18.68"
         style="fill:#ad93d1;fill-opacity:1;fill-rule:nonzero;stroke:none"
         transform="matrix(0.13333333,0,0,-0.13333333,0,666.66667)" />
      <path
         id="path123"
         d="m 1105.24,3991.14 v 0 c 0,-10.32 8.32,-18.69 18.59,-18.69 h 91.96 c 10.27,0 18.59,8.37 18.59,18.69 v 0 c 0,10.32 -8.32,18.68 -18.59,18.68 h -91.96 c -10.27,0 -18.59,-8.36 -18.59,-18.68"
         style="fill:#ad93d1;fill-opacity:1;fill-rule:nonzero;stroke:none"
         transform="matrix(0.13333333,0,0,-0.13333333,0,666.66667)" />
      <path
         id="path124"
         d="m 1288.26,3991.14 v 0 c 0,-10.32 8.32,-18.69 18.59,-18.69 h 67.73 c 10.27,0 18.59,8.37 18.59,18.69 v 0 c 0,10.32 -8.32,18.68 -18.59,18.68 h -67.73 c -10.27,0 -18.59,-8.36 -18.59,-18.68"
         style="fill:#ad93d1;fill-opacity:1;fill-rule:nonzero;stroke:none"
         transform="matrix(0.13333333,0,0,-0.13333333,0,666.66667)" />
      <path
         id="path125"
         d="m 1009.14,3899.14 v 0 c 0,-10.32 8.32,-18.69 18.59,-18.69 h 104.38 c 10.27,0 18.59,8.37 18.59,18.69 v 0 c 0,10.32 -8.32,18.69 -18.59,18.69 h -104.38 c -10.27,0 -18.59,-8.37 -18.59,-18.69"
         style="fill:#ad93d1;fill-opacity:1;fill-rule:nonzero;stroke:none"
         transform="matrix(0.13333333,0,0,-0.13333333,0,666.66667)" />
      <path
         id="path126"
         d="m 722.777,3899.14 v 0 c 0,-10.32 8.321,-18.69 18.586,-18.69 h 34.848 c 10.266,0 18.59,8.37 18.59,18.69 v 0 c 0,10.32 -8.324,18.69 -18.59,18.69 h -34.848 c -10.265,0 -18.586,-8.37 -18.586,-18.69"
         style="fill:#ad93d1;fill-opacity:1;fill-rule:nonzero;stroke:none"
         transform="matrix(0.13333333,0,0,-0.13333333,0,666.66667)" />
      <path
         id="path127"
         d="m 829.566,3899.14 v 0 c 0,-10.32 8.325,-18.69 18.586,-18.69 h 77.067 c 10.269,0 18.59,8.37 18.59,18.69 v 0 c 0,10.32 -8.321,18.69 -18.59,18.69 h -77.067 c -10.261,0 -18.586,-8.37 -18.586,-18.69"
         style="fill:#ad93d1;fill-opacity:1;fill-rule:nonzero;stroke:none"
         transform="matrix(0.13333333,0,0,-0.13333333,0,666.66667)" />
      <path
         id="path128"
         d="m 1219.48,3899.14 v 0 c 0,-10.32 8.32,-18.69 18.59,-18.69 h 136.67 c 10.26,0 18.59,8.37 18.59,18.69 v 0 c 0,10.32 -8.33,18.69 -18.59,18.69 h -136.67 c -10.27,0 -18.59,-8.37 -18.59,-18.69"
         style="fill:#ad93d1;fill-opacity:1;fill-rule:nonzero;stroke:none"
         transform="matrix(0.13333333,0,0,-0.13333333,0,666.66667)" />
      <path
         id="path129"
         d="m 715.059,4119.87 c -2.137,0 -4.278,0.77 -5.973,2.35 l -44.258,41.12 43.918,45.49 c 3.387,3.51 8.969,3.59 12.449,0.19 3.493,-3.41 3.571,-9.02 0.188,-12.52 l -31.348,-32.47 31.004,-28.81 c 3.574,-3.32 3.797,-8.92 0.492,-12.51 -1.734,-1.89 -4.097,-2.84 -6.472,-2.84"
         style="fill:#ad93d1;fill-opacity:1;fill-rule:nonzero;stroke:none"
         transform="matrix(0.13333333,0,0,-0.13333333,0,666.66667)" />
      <path
         id="path130"
         d="m 768.434,4119.87 c -2.133,0 -4.278,0.77 -5.973,2.35 l -44.258,41.12 43.914,45.49 c 3.391,3.51 8.973,3.59 12.453,0.19 3.493,-3.41 3.575,-9.02 0.192,-12.52 l -31.356,-32.47 31.008,-28.81 c 3.574,-3.32 3.793,-8.92 0.492,-12.51 -1.738,-1.89 -4.101,-2.84 -6.472,-2.84"
         style="fill:#ad93d1;fill-opacity:1;fill-rule:nonzero;stroke:none"
         transform="matrix(0.13333333,0,0,-0.13333333,0,666.66667)" />
      <path
         id="path131"
         d="m 1368.66,3407.55 c -2.37,0 -4.73,0.96 -6.47,2.85 -3.3,3.59 -3.08,9.18 0.49,12.51 l 31.01,28.8 -31.36,32.47 c -3.38,3.51 -3.3,9.12 0.19,12.52 3.48,3.4 9.07,3.32 12.46,-0.19 l 43.91,-45.48 -44.26,-41.13 c -1.69,-1.57 -3.83,-2.35 -5.97,-2.35"
         style="fill:#ad93d1;fill-opacity:1;fill-rule:nonzero;stroke:none"
         transform="matrix(0.13333333,0,0,-0.13333333,0,666.66667)" />
      <path
         id="path132"
         d="m 1315.29,3407.55 c -2.38,0 -4.74,0.96 -6.48,2.85 -3.3,3.59 -3.08,9.18 0.5,12.51 l 31,28.8 -31.35,32.47 c -3.38,3.51 -3.3,9.12 0.19,12.52 3.48,3.4 9.06,3.32 12.45,-0.19 l 43.92,-45.48 -44.26,-41.13 c -1.69,-1.57 -3.84,-2.35 -5.97,-2.35"
         style="fill:#ad93d1;fill-opacity:1;fill-rule:nonzero;stroke:none"
         transform="matrix(0.13333333,0,0,-0.13333333,0,666.66667)" />
      <path
         id="path133"
         d="m 2068.03,3324.34 h -10.98 c -30.01,0 -54.34,24.33 -54.34,54.33 v 397.83 c 0,30 24.33,54.33 54.34,54.33 h 10.98 c 30.01,0 54.33,-24.33 54.33,-54.33 v -397.83 c 0,-30 -24.32,-54.33 -54.33,-54.33"
         style="fill:#9384ca;fill-opacity:1;fill-rule:nonzero;stroke:none"
         transform="matrix(0.13333333,0,0,-0.13333333,0,666.66667)" />
      <path
         id="path134"
         d="m 2261.34,2958.17 -10.68,-5.81 c -23.15,-12.58 -52.07,-3.93 -64.6,19.34 l -153.6,285.4 c -12.52,23.28 -3.91,52.35 19.24,64.94 l 10.68,5.81 c 23.16,12.59 52.08,3.94 64.6,-19.34 l 153.6,-285.39 c 12.53,-23.28 3.92,-52.35 -19.24,-64.95"
         style="fill:#9384ca;fill-opacity:1;fill-rule:nonzero;stroke:none"
         transform="matrix(0.13333333,0,0,-0.13333333,0,666.66667)" />
      <path
         id="path135"
         d="m 2226.74,2784.32 c -33.28,66.01 -17.45,141.33 35.35,168.24 52.81,26.9 122.6,-4.81 155.88,-70.82"
         style="fill:none;stroke:#9384ca;stroke-width:50;stroke-linecap:round;stroke-linejoin:round;stroke-miterlimit:10;stroke-dasharray:none;stroke-opacity:1"
         transform="matrix(0.13333333,0,0,-0.13333333,0,666.66667)" />
      <path
         id="path136"
         d="m 2085.86,3374.93 c 0,-10.68 -8.61,-19.34 -19.24,-19.34 -10.62,0 -19.24,8.66 -19.24,19.34 0,10.69 8.62,19.34 19.24,19.34 10.63,0 19.24,-8.65 19.24,-19.34"
         style="fill:#171717;fill-opacity:1;fill-rule:nonzero;stroke:none"
         transform="matrix(0.13333333,0,0,-0.13333333,0,666.66667)" />
      <path
         id="path137"
         d="m 2102.35,3283.75 c 0,-10.68 -8.61,-19.34 -19.24,-19.34 -10.62,0 -19.24,8.66 -19.24,19.34 0,10.68 8.62,19.35 19.24,19.35 10.63,0 19.24,-8.67 19.24,-19.35"
         style="fill:#171717;fill-opacity:1;fill-rule:nonzero;stroke:none"
         transform="matrix(0.13333333,0,0,-0.13333333,0,666.66667)" />
      <path
         id="path138"
         d="m 2188.93,3807.34 c 0,-66.38 -53.53,-120.19 -119.56,-120.19 -66.04,0 -119.56,53.81 -119.56,120.19 0,66.38 53.52,120.19 119.56,120.19 66.03,0 119.56,-53.81 119.56,-120.19 z"
         style="fill:none;stroke:#040606;stroke-width:10;stroke-linecap:round;stroke-linejoin:round;stroke-miterlimit:10;stroke-dasharray:none;stroke-opacity:1"
         transform="matrix(0.13333333,0,0,-0.13333333,0,666.66667)" />
      <path
         id="path139"
         d="m 2150.72,3807.34 c 0,-45.16 -36.42,-81.78 -81.35,-81.78 -44.93,0 -81.35,36.62 -81.35,81.78 0,45.17 36.42,81.78 81.35,81.78 44.93,0 81.35,-36.61 81.35,-81.78"
         style="fill:#040606;fill-opacity:1;fill-rule:nonzero;stroke:none"
         transform="matrix(0.13333333,0,0,-0.13333333,0,666.66667)" />
      <path
         id="path140"
         d="m 2226.74,2784.32 c -33.28,66.01 -17.45,141.33 35.35,168.24 52.81,26.9 122.6,-4.81 155.88,-70.82"
         style="fill:none;stroke:#040606;stroke-width:10;stroke-linecap:round;stroke-linejoin:round;stroke-miterlimit:10;stroke-dasharray:none;stroke-opacity:1"
         transform="matrix(0.13333333,0,0,-0.13333333,0,666.66667)" />
      <path
         id="path141"
         d="m 2071.69,3830.83 v 154.93 c 0,61.65 -49.71,111.63 -111.04,111.63 h -542.27"
         style="fill:none;stroke:#5b55af;stroke-width:10;stroke-linecap:round;stroke-linejoin:round;stroke-miterlimit:10;stroke-dasharray:none;stroke-opacity:1"
         transform="matrix(0.13333333,0,0,-0.13333333,0,666.66667)" />
      <path
         id="path142"
         d="m 1418.38,3857.01 h 243 c 50.56,0 99.05,-20.19 134.8,-56.13 l 230.38,-231.6"
         style="fill:none;stroke:#5b55af;stroke-width:10;stroke-linecap:round;stroke-linejoin:round;stroke-miterlimit:10;stroke-dasharray:none;stroke-opacity:1"
         transform="matrix(0.13333333,0,0,-0.13333333,0,666.66667)" />
      <path
         id="path143"
         d="m 1418.38,3776.88 h 192.28 c 50.56,0 99.05,-20.19 134.79,-56.13 l 277.49,-278.95"
         style="fill:none;stroke:#5b55af;stroke-width:10;stroke-linecap:round;stroke-linejoin:round;stroke-miterlimit:10;stroke-dasharray:none;stroke-opacity:1"
         transform="matrix(0.13333333,0,0,-0.13333333,0,666.66667)" />
      <path
         id="path144"
         d="m 2022.25,1822.96 70.74,427.43 c 2.06,12.47 -7.51,23.83 -20.08,23.83 h -312.42"
         style="fill:none;stroke:#f14c62;stroke-width:10;stroke-linecap:round;stroke-linejoin:round;stroke-miterlimit:10;stroke-dasharray:none;stroke-opacity:1"
         transform="matrix(0.13333333,0,0,-0.13333333,0,666.66667)" />
      <path
         id="path145"
         d="M 4165.22,390.699 H 2948.28 V 1514.03 H 4165.22 V 390.699"
         style="fill:#9384ca;fill-opacity:1;fill-rule:nonzero;stroke:none"
         transform="matrix(0.13333333,0,0,-0.13333333,0,666.66667)" />
      <path
         id="path146"
         d="M 4165.22,1292.52 H 2948.28"
         style="fill:none;stroke:#171717;stroke-width:10;stroke-linecap:round;stroke-linejoin:round;stroke-miterlimit:10;stroke-dasharray:none;stroke-opacity:1"
         transform="matrix(0.13333333,0,0,-0.13333333,0,666.66667)" />
      <path
         id="path147"
         d="M 4165.22,1071.01 H 2948.28"
         style="fill:none;stroke:#171717;stroke-width:10;stroke-linecap:round;stroke-linejoin:round;stroke-miterlimit:10;stroke-dasharray:none;stroke-opacity:1"
         transform="matrix(0.13333333,0,0,-0.13333333,0,666.66667)" />
      <path
         id="path148"
         d="M 4165.22,849.492 H 2948.28"
         style="fill:none;stroke:#171717;stroke-width:10;stroke-linecap:round;stroke-linejoin:round;stroke-miterlimit:10;stroke-dasharray:none;stroke-opacity:1"
         transform="matrix(0.13333333,0,0,-0.13333333,0,666.66667)" />
      <path
         id="path149"
         d="M 4165.22,627.992 H 2948.28"
         style="fill:none;stroke:#171717;stroke-width:10;stroke-linecap:round;stroke-linejoin:round;stroke-miterlimit:10;stroke-dasharray:none;stroke-opacity:1"
         transform="matrix(0.13333333,0,0,-0.13333333,0,666.66667)" />
      <path
         id="path150"
         d="m 3263.79,547.43 h -230.37 v -65.438 h 230.37 v 65.438"
         style="fill:#5b55af;fill-opacity:1;fill-rule:nonzero;stroke:none"
         transform="matrix(0.13333333,0,0,-0.13333333,0,666.66667)" />
      <path
         id="path151"
         d="m 3378.97,547.43 v -65.438 h 681.09 v 65.438 h -681.09"
         style="fill:#5b55af;fill-opacity:1;fill-rule:nonzero;stroke:none"
         transform="matrix(0.13333333,0,0,-0.13333333,0,666.66667)" />
      <path
         id="path152"
         d="m 3263.79,763.922 h -230.37 v -65.453 h 230.37 v 65.453"
         style="fill:#5b55af;fill-opacity:1;fill-rule:nonzero;stroke:none"
         transform="matrix(0.13333333,0,0,-0.13333333,0,666.66667)" />
      <path
         id="path153"
         d="m 3378.97,763.922 v -65.453 h 681.09 v 65.453 h -681.09"
         style="fill:#5b55af;fill-opacity:1;fill-rule:nonzero;stroke:none"
         transform="matrix(0.13333333,0,0,-0.13333333,0,666.66667)" />
      <path
         id="path154"
         d="m 3263.79,980.391 h -230.37 v -65.45 h 230.37 v 65.45"
         style="fill:#5b55af;fill-opacity:1;fill-rule:nonzero;stroke:none"
         transform="matrix(0.13333333,0,0,-0.13333333,0,666.66667)" />
      <path
         id="path155"
         d="m 3378.97,980.391 v -65.45 h 681.09 v 65.45 h -681.09"
         style="fill:#5b55af;fill-opacity:1;fill-rule:nonzero;stroke:none"
         transform="matrix(0.13333333,0,0,-0.13333333,0,666.66667)" />
      <path
         id="path156"
         d="m 3263.79,1196.87 h -230.37 v -65.45 h 230.37 v 65.45"
         style="fill:#5b55af;fill-opacity:1;fill-rule:nonzero;stroke:none"
         transform="matrix(0.13333333,0,0,-0.13333333,0,666.66667)" />
      <path
         id="path157"
         d="m 3378.97,1196.87 v -65.45 h 681.09 v 65.45 h -681.09"
         style="fill:#5b55af;fill-opacity:1;fill-rule:nonzero;stroke:none"
         transform="matrix(0.13333333,0,0,-0.13333333,0,666.66667)" />
      <path
         id="path158"
         d="m 3263.79,1413.34 h -230.37 v -65.44 h 230.37 v 65.44"
         style="fill:#5b55af;fill-opacity:1;fill-rule:nonzero;stroke:none"
         transform="matrix(0.13333333,0,0,-0.13333333,0,666.66667)" />
      <path
         id="path159"
         d="m 3378.97,1413.34 v -65.44 h 681.09 v 65.44 h -681.09"
         style="fill:#5b55af;fill-opacity:1;fill-rule:nonzero;stroke:none"
         transform="matrix(0.13333333,0,0,-0.13333333,0,666.66667)" />
      <path
         id="path160"
         d="m 3845.98,3326.4 c 0,-18.78 -15.14,-34 -33.82,-34 -18.67,0 -33.81,15.22 -33.81,34 0,18.77 15.14,33.99 33.81,33.99 18.68,0 33.82,-15.22 33.82,-33.99"
         style="fill:#5b55af;fill-opacity:1;fill-rule:nonzero;stroke:none"
         transform="matrix(0.13333333,0,0,-0.13333333,0,666.66667)" />
      <path
         id="path161"
         d="m 4097.21,3385.13 c 0,-18.77 -15.14,-33.99 -33.81,-33.99 -18.68,0 -33.82,15.22 -33.82,33.99 0,18.78 15.14,33.99 33.82,33.99 18.67,0 33.81,-15.21 33.81,-33.99"
         style="fill:#5b55af;fill-opacity:1;fill-rule:nonzero;stroke:none"
         transform="matrix(0.13333333,0,0,-0.13333333,0,666.66667)" />
      <path
         id="path162"
         d="m 4019.59,3430.44 c 0,-18.77 -15.15,-33.99 -33.82,-33.99 -18.67,0 -33.82,15.22 -33.82,33.99 0,18.77 15.15,33.99 33.82,33.99 18.67,0 33.82,-15.22 33.82,-33.99"
         style="fill:#5b55af;fill-opacity:1;fill-rule:nonzero;stroke:none"
         transform="matrix(0.13333333,0,0,-0.13333333,0,666.66667)" />
      <path
         id="path163"
         d="m 3949.74,3503.07 c 0,-18.77 -15.14,-33.99 -33.82,-33.99 -18.67,0 -33.81,15.22 -33.81,33.99 0,18.78 15.14,34 33.81,34 18.68,0 33.82,-15.22 33.82,-34"
         style="fill:#5b55af;fill-opacity:1;fill-rule:nonzero;stroke:none"
         transform="matrix(0.13333333,0,0,-0.13333333,0,666.66667)" />
      <path
         id="path164"
         d="m 4064.36,3401.91 7.52,-1653.79 326.77,-328.48 V 917.461 L 4201.46,719.23"
         style="fill:none;stroke:#5b55af;stroke-width:10;stroke-linecap:round;stroke-linejoin:round;stroke-miterlimit:10;stroke-dasharray:none;stroke-opacity:1"
         transform="matrix(0.13333333,0,0,-0.13333333,0,666.66667)" />
      <path
         id="path165"
         d="M 3917.32,3515.19 V 1853.85 l -289.21,-290.73"
         style="fill:none;stroke:#5b55af;stroke-width:10;stroke-linecap:round;stroke-linejoin:round;stroke-miterlimit:10;stroke-dasharray:none;stroke-opacity:1"
         transform="matrix(0.13333333,0,0,-0.13333333,0,666.66667)" />
      <path
         id="path166"
         d="M 3987.63,3433.17 V 1604.65"
         style="fill:none;stroke:#5b55af;stroke-width:10;stroke-linecap:round;stroke-linejoin:round;stroke-miterlimit:10;stroke-dasharray:none;stroke-opacity:1"
         transform="matrix(0.13333333,0,0,-0.13333333,0,666.66667)" />
      <path
         id="path167"
         d="M 3812.16,3326.4 V 1899.16 l -326.77,-328.5"
         style="fill:none;stroke:#5b55af;stroke-width:10;stroke-linecap:round;stroke-linejoin:round;stroke-miterlimit:10;stroke-dasharray:none;stroke-opacity:1"
         transform="matrix(0.13333333,0,0,-0.13333333,0,666.66667)" />
      <path
         id="path168"
         d="m 3518.79,1571.08 c 0,-18.77 -15.14,-33.99 -33.82,-33.99 -18.67,0 -33.81,15.22 -33.81,33.99 0,18.78 15.14,34 33.81,34 18.68,0 33.82,-15.22 33.82,-34"
         style="fill:#5b55af;fill-opacity:1;fill-rule:nonzero;stroke:none"
         transform="matrix(0.13333333,0,0,-0.13333333,0,666.66667)" />
      <path
         id="path169"
         d="m 4025.43,1576.12 c 0,-18.78 -15.14,-33.99 -33.82,-33.99 -18.67,0 -33.81,15.21 -33.81,33.99 0,18.77 15.14,34 33.81,34 18.68,0 33.82,-15.23 33.82,-34"
         style="fill:#5b55af;fill-opacity:1;fill-rule:nonzero;stroke:none"
         transform="matrix(0.13333333,0,0,-0.13333333,0,666.66667)" />
      <path
         id="path170"
         d="m 4229.08,710.211 c 0,-18.77 -15.13,-33.992 -33.81,-33.992 -18.67,0 -33.82,15.222 -33.82,33.992 0,18.769 15.15,34 33.82,34 18.68,0 33.81,-15.231 33.81,-34"
         style="fill:#5b55af;fill-opacity:1;fill-rule:nonzero;stroke:none"
         transform="matrix(0.13333333,0,0,-0.13333333,0,666.66667)" />
      <path
         id="path171"
         d="m 3661.93,1571.08 c 0,-18.77 -15.13,-33.99 -33.82,-33.99 -18.67,0 -33.8,15.22 -33.8,33.99 0,18.78 15.13,34 33.8,34 18.69,0 33.82,-15.22 33.82,-34"
         style="fill:#5b55af;fill-opacity:1;fill-rule:nonzero;stroke:none"
         transform="matrix(0.13333333,0,0,-0.13333333,0,666.66667)" />
    </g>
  </g>
</svg>
